<?xml version="1.0" encoding="utf-8"?><svg version="1.1" id="Layer_1" xmlns="http://www.w3.org/2000/svg" xmlns:xlink="http://www.w3.org/1999/xlink" x="0px" y="0px" viewBox="0 0 111.81 122.88" style="enable-background:new 0 0 111.81 122.88" xml:space="preserve"><style type="text/css">.st0{fill:#7A2E00;} .st1{fill:#FCEB8F;} .st2{fill:#FEDA00;} .st3{fill:#FDF2B4;} .st4{fill:#F5A800;}</style><g><path class="st0" d="M11.22,66.83c-1.71-4.59-3.11-9.33-4.23-14.18c-1.29-5.54-2.21-11.24-2.8-17.03C3.76,31.35,3.05,23.4,3.9,16.2 C4.83,8.42,7.57,1.48,14.32,0.19c11.52-2.2,16.95,15.47,20.2,26.01c0.51,1.67,0.97,3.15,1.37,4.28c1.09,3.1,2.18,6.08,3.31,8.97 c0.84,2.15,1.69,4.22,2.55,6.21c0.26-0.16,0.52-0.3,0.79-0.45c1.89-1,3.94-1.62,6.07-1.91c4.24-0.58,8.43,0.03,12.37,1.45 c4.37,1.57,8.43,4.15,11.92,7.21c1.49,1.31,3.65,3.4,5.39,5.59c1.31,1.65,2.4,3.38,2.84,4.96c0.21,0.75,0.33,1.51,0.34,2.26 c0.02,0.78-0.07,1.52-0.26,2.21c-0.28,1.02-0.77,1.95-1.46,2.74c-0.66,0.75-1.51,1.37-2.53,1.8c-3.44,1.45-7.2-0.39-11.01-2.24 c-1.75-0.85-3.51-1.71-5.07-2.15c-2.61-0.73-5.2-1.12-7.74-1.19c3.5,4.4,7.51,8.27,12.31,11.76c5.88,4.25,12.92,7.93,21.63,11.3 c1.21,0.47,2.53,0.96,3.94,1.46c1.37,0.49,2.76,0.96,4.19,1.43h0.01l0,0c0.73,0.24,1.31,0.42,1.9,0.61 c6.52,2.04,15.03,4.7,14.4,12.66c-0.23,2.87-1.34,6.03-3.87,8.87c-2.01,2.25-4.91,4.28-8.97,5.75c-0.06,0.02-0.12,0.04-0.18,0.06 l0,0c-7.08,1.8-14.01,2.45-20.78,1.96c-6.78-0.48-13.39-2.1-19.84-4.8c-7.66-3.21-14.39-7.28-20.28-12.04 c-3.99-3.22-7.58-6.76-10.81-10.57c0.69,3.38,1.73,6.7,2.7,9.74c1.7,5.38,3.16,10.01,2.34,13.49c-0.04,0.17-0.1,0.37-0.17,0.58 c-0.78,2.31-2.65,3.65-4.82,4.28c-1.87,0.54-4.02,0.51-5.75,0.1c-0.28-0.07-0.58-0.15-0.88-0.26c-1.98-0.67-3.84-1.57-5.58-2.66 c-6.33-3.98-10.82-10.46-13.12-17.7c-2.29-7.2-2.42-15.17-0.04-22.18c0.72-2.13,1.69-4.18,2.89-6.1 C6.36,70.89,8.57,68.55,11.22,66.83L11.22,66.83L11.22,66.83z"/><path class="st1" d="M25.2,105.56c-3.51-11.13-8.04-25.47,4.08-35.7c-3.98-1.41-7.49-1.67-10.52-1.06 c-4.34,0.89-7.76,3.64-10.12,7.4c-1,1.59-1.8,3.3-2.41,5.1c-2.05,6.04-1.93,12.96,0.06,19.21c1.98,6.22,5.79,11.76,11.13,15.11 c1.41,0.89,2.94,1.62,4.57,2.18c0.12,0.04,0.27,0.08,0.45,0.13c1.02,0.24,2.27,0.26,3.35-0.05c0.78-0.22,1.42-0.62,1.62-1.22 c0.01-0.02,0.02-0.07,0.04-0.15C27.97,114.31,26.69,110.26,25.2,105.56L25.2,105.56L25.2,105.56z"/><path class="st2" d="M26.29,87.22c3.95,5.44,8.58,10.4,13.97,14.75c5.61,4.53,12.04,8.41,19.37,11.49 c6.07,2.55,12.28,4.06,18.63,4.52c6.34,0.45,12.85-0.15,19.51-1.85c3.35-1.23,5.7-2.87,7.3-4.65c0.55-0.62,1.01-1.26,1.39-1.9 c-14.84,1.79-28.68-1.54-40.43-7.65c-14.1-7.34-25.21-18.71-31.46-30.1C28.38,76.01,26.36,81.49,26.29,87.22L26.29,87.22 L26.29,87.22z"/><path class="st3" d="M38.63,48.08c-1.02-2.31-2.01-4.72-3-7.24c-1.11-2.84-2.22-5.88-3.35-9.1c-0.43-1.21-0.89-2.72-1.41-4.42 C28,18.01,23.19,2.39,15.04,3.95c-4.61,0.88-6.59,6.43-7.33,12.7C6.9,23.49,7.58,31.14,8,35.26c0.57,5.6,1.46,11.14,2.72,16.55 c1.05,4.54,2.36,8.98,3.93,13.27c1.01-0.39,2.06-0.71,3.17-0.93c4.12-0.84,8.86-0.44,14.14,1.64c0.08-1.37,0.22-2.75,0.43-4.12 c0.42-2.74,1.14-5.45,2.32-7.96c0.41-0.88,0.86-1.69,1.35-2.45c0.5-0.78,1.04-1.5,1.62-2.16C37.97,48.75,38.3,48.41,38.63,48.08 L38.63,48.08L38.63,48.08z"/><path class="st1" d="M35.76,66.33c3.6-1.88,7.42-3.18,11.39-3.81c4.86-0.77,9.92-0.52,15.04,0.92c1.92,0.54,3.82,1.47,5.71,2.39 c3.03,1.48,6.03,2.94,7.85,2.17c0.45-0.19,0.83-0.47,1.13-0.81c0.3-0.34,0.51-0.75,0.64-1.21c0.1-0.36,0.14-0.74,0.14-1.13 c-0.01-0.4-0.08-0.84-0.21-1.3c-0.29-1.03-1.13-2.32-2.15-3.62c-1.57-1.97-3.56-3.89-4.93-5.1c-3.16-2.78-6.8-5.1-10.67-6.49 c-3.39-1.22-6.97-1.74-10.57-1.25c-1.69,0.23-3.31,0.72-4.8,1.5c-1.38,0.73-2.65,1.72-3.77,3c-0.45,0.52-0.88,1.09-1.29,1.73 c-0.4,0.62-0.77,1.29-1.11,2.01c-1.01,2.13-1.62,4.48-1.99,6.9C35.96,63.59,35.83,64.96,35.76,66.33L35.76,66.33L35.76,66.33z"/><path class="st4" d="M107.89,105.52c0.03-0.23,0.06-0.45,0.07-0.67c0.39-4.91-6.47-7.06-11.72-8.7c-0.75-0.23-1.47-0.46-1.96-0.62 l0,0c-1.47-0.48-2.9-0.97-4.27-1.46c-1.33-0.47-2.68-0.97-4.05-1.51c-9.04-3.5-16.36-7.34-22.48-11.78 c-5.86-4.25-10.61-9.05-14.71-14.64c-0.35,0.04-0.7,0.09-1.04,0.15c-3.46,0.55-6.82,1.68-10,3.33c5.88,10.9,16.51,21.85,30.07,28.9 c11.57,6.02,25.26,9.19,39.91,7.02C107.77,105.53,107.83,105.53,107.89,105.52L107.89,105.52L107.89,105.52z"/></g></svg>