<?xml version="1.0" encoding="UTF-8" standalone="no"?>
<svg
   xmlns:dc="http://purl.org/dc/elements/1.1/"
   xmlns:cc="http://creativecommons.org/ns#"
   xmlns:rdf="http://www.w3.org/1999/02/22-rdf-syntax-ns#"
   xmlns:svg="http://www.w3.org/2000/svg"
   xmlns="http://www.w3.org/2000/svg"
   xmlns:sodipodi="http://sodipodi.sourceforge.net/DTD/sodipodi-0.dtd"
   xmlns:inkscape="http://www.inkscape.org/namespaces/inkscape"
   version="1.1"
   id="Layer_1"
   x="0px"
   y="0px"
   viewBox="0 0 40 40"
   style="enable-background:new 0 0 40 40;"
   xml:space="preserve"
   width="40"
   height="40"
   sodipodi:docname="Citrus2.svg"
   inkscape:version="1.0.2 (394de47547, 2021-03-26)"><metadata
   id="metadata338"><rdf:RDF><cc:Work
       rdf:about=""><dc:format>image/svg+xml</dc:format><dc:type
         rdf:resource="http://purl.org/dc/dcmitype/StillImage" /><dc:title></dc:title></cc:Work></rdf:RDF></metadata><defs
   id="defs336" /><sodipodi:namedview
   pagecolor="#ffffff"
   bordercolor="#666666"
   borderopacity="1"
   objecttolerance="10"
   gridtolerance="10"
   guidetolerance="10"
   inkscape:pageopacity="0"
   inkscape:pageshadow="2"
   inkscape:window-width="1848"
   inkscape:window-height="1016"
   id="namedview334"
   showgrid="false"
   inkscape:zoom="21.55"
   inkscape:cx="20"
   inkscape:cy="20"
   inkscape:window-x="72"
   inkscape:window-y="27"
   inkscape:window-maximized="1"
   inkscape:current-layer="Layer_1" />
<g
   id="g301"
   style="fill:#ff6600">
	<path
   style="fill:#ff6600"
   d="M16.661,1.504C31.539,1.73,34.654,12.107,35.835,16.041c0.314,1.047,0.444,1.481,0.765,1.668   c1.208,0.705,1.9,1.523,1.9,2.247c0,0.595-0.763,1.618-1.774,2.379c-0.3,0.225-0.38,0.672-0.554,1.652   c-0.699,3.931-2.546,14.311-19.689,14.509L16.661,1.504z"
   id="path295" />
	<g
   id="g299"
   style="fill:#ff6600">
		<path
   style="fill:#ff6600"
   d="M17.159,2.016c14.077,0.448,17.059,10.377,18.198,14.169c0.355,1.181,0.501,1.67,0.992,1.956    C37.566,18.852,38,19.544,38,19.956c0,0.376-0.647,1.282-1.575,1.979c-0.458,0.344-0.554,0.885-0.746,1.964    c-0.672,3.78-2.436,13.696-18.694,14.088L17.159,2.016 M16.164,1l-0.183,38c21.456,0,20.15-15.593,21.045-16.265    C37.952,22.038,39,20.869,39,19.956c0-0.913-0.757-1.867-2.148-2.679C35.948,16.75,34.963,1,16.164,1L16.164,1z"
   id="path297" />
	</g>
</g>
<g
   id="g307">
	<path
   style="fill:#F2D75C;"
   d="M16,38.5C8.005,38.5,1.5,30.201,1.5,20S8.005,1.5,16,1.5S30.5,9.799,30.5,20S23.995,38.5,16,38.5z"
   id="path303" />
	<path
   style="fill:#BA9B48;"
   d="M16,2c7.72,0,14,8.075,14,18s-6.28,18-14,18S2,29.925,2,20S8.28,2,16,2 M16,1C7.716,1,1,9.505,1,20   s6.716,19,15,19c8.285,0,15-8.505,15-19S24.285,1,16,1L16,1z"
   id="path305" />
</g>
<g
   id="g311">
	<path
   style="fill:#FFF5C4;"
   d="M15.948,16.479l4.208-10.38c-2.874-1.591-6.02-1.414-8.721,0.243L15.948,16.479z"
   id="path309" />
</g>
<g
   id="g315">
	<path
   style="fill:#FFF5C4;"
   d="M18.22,18.176l8.715-0.237c-0.41-3.977-1.978-7.683-4.508-10.131L18.22,18.176z"
   id="path313" />
</g>
<g
   id="g319">
	<path
   style="fill:#FFF5C4;"
   d="M22.786,31.843c1.154-1.218,2.144-2.755,2.893-4.597c0.747-1.853,1.18-3.813,1.319-5.789   l-8.73,0.239L22.786,31.843z"
   id="path317" />
</g>
<g
   id="g323">
	<path
   style="fill:#FFF5C4;"
   d="M16.053,23.522l-4.21,10.372c2.876,1.599,6.02,1.407,8.716-0.236L16.053,23.522z"
   id="path321" />
</g>
<g
   id="g327">
	<path
   style="fill:#FFF5C4;"
   d="M9.214,8.153c-1.156,1.209-2.149,2.751-2.896,4.604c-0.751,1.847-1.178,3.806-1.32,5.783   l8.728-0.243L9.214,8.153z"
   id="path325" />
</g>
<g
   id="g331">
	<path
   style="fill:#FFF5C4;"
   d="M13.778,21.82l-8.716,0.243c0.41,3.974,1.98,7.683,4.506,10.133L13.778,21.82z"
   id="path329" />
</g>
<path
   style="fill:#ff7f2a;stroke-width:0.0464037"
   d="M 14.593968,37.885651 C 12.467602,37.59686 10.45445,36.713092 8.6310905,35.267962 8.0082107,34.77429 6.8182111,33.580451 6.2983977,32.927742 3.8937085,29.908273 2.4542407,26.097651 2.0897946,21.786543 c -0.060697,-0.717996 -0.060697,-2.85509 0,-3.573086 C 2.5022621,13.334294 4.3172557,9.0394761 7.2480724,6.0074261 9.241394,3.9452536 11.460606,2.7028859 14.060325,2.1937654 14.6414,2.0799695 14.779206,2.0708618 15.962877,2.0680243 c 1.144821,-0.00274 1.338162,0.00814 1.87935,0.1058208 4.641154,0.8376793 8.582962,4.472844 10.673487,9.8431679 0.684366,1.758058 1.125024,3.618213 1.352473,5.709205 0.117,1.075604 0.117,3.47196 0,4.547564 -0.384469,3.534516 -1.450994,6.653329 -3.173228,9.279396 -2.362668,3.602602 -5.67735,5.858093 -9.307545,6.333364 -0.674305,0.08828 -2.140316,0.08781 -2.793446,-8.91e-4 z m 2.00458,-2.897644 c 0.696553,-0.06166 1.415143,-0.204666 2.007928,-0.399592 0.542982,-0.178549 1.894456,-0.820546 1.93171,-0.917629 0.024,-0.06254 -4.432311,-10.144104 -4.483951,-10.144104 -0.02711,0 -4.221288,10.300379 -4.221288,10.36697 0,0.05995 1.028149,0.523975 1.537979,0.694125 0.600657,0.200462 1.265189,0.339822 1.877968,0.393833 0.651245,0.0574 0.767273,0.05795 1.349654,0.0064 z m -4.912775,-7.949486 c 1.152872,-2.84111 2.09613,-5.182974 2.09613,-5.204142 0,-0.02117 -0.475058,-0.02431 -1.055685,-0.007 -1.733768,0.05176 -7.451192,0.213462 -7.563805,0.213927 -0.1322935,5.48e-4 -0.1329846,0.06034 -0.010196,0.882102 0.4659878,3.118626 1.6302219,5.967607 3.2900539,8.051044 0.3827253,0.4804 1.0604705,1.229698 1.1122705,1.229698 0.019306,0 0.9783606,-2.324544 2.1312316,-5.165655 z m 11.400458,4.504402 c 1.21658,-1.339588 2.323496,-3.318778 3.010093,-5.38211 0.249945,-0.751123 0.544334,-1.924574 0.677018,-2.698627 0.119086,-0.694734 0.262521,-1.963833 0.226073,-2.000281 -0.02379,-0.02379 -8.466544,0.190947 -8.679462,0.220754 -0.06379,0.0089 0.358202,0.993044 2.178645,5.080682 1.241771,2.788283 2.272722,5.069606 2.291003,5.069606 0.01828,0 0.151765,-0.130511 0.29663,-0.290024 z M 10.116009,18.417232 C 12.093968,18.363462 13.720474,18.3118 13.730468,18.30243 13.746605,18.287298 9.4771276,8.6546297 9.282303,8.2666116 L 9.2041448,8.1109494 8.8364111,8.5362937 C 6.8365768,10.849432 5.4640665,14.134699 5.0843064,17.517401 c -0.040113,0.357309 -0.08332,0.741294 -0.096015,0.8533 l -0.023082,0.203647 0.7772559,-0.02968 c 0.4274908,-0.01632 2.3955854,-0.07367 4.3735437,-0.12744 z m 12.663447,-0.34247 c 2.281601,-0.0631 4.156179,-0.122539 4.16573,-0.13209 0.03193,-0.03193 -0.174685,-1.391886 -0.311749,-2.051964 C 26.276239,14.170492 25.637263,12.407816 24.865761,11.014401 24.273594,9.9448863 23.369785,8.7106998 22.697684,8.0538074 L 22.415642,7.778149 22.34969,7.9377981 c -0.111033,0.2687717 -4.073419,10.0365239 -4.116658,10.1480489 -0.05014,0.129321 -0.576993,0.130605 4.546424,-0.01109 z M 18.00698,11.461717 c 1.101849,-2.7180975 2.043024,-5.0425279 2.091499,-5.1654009 l 0.08814,-0.2234055 -0.522542,-0.2479279 c -2.02935,-0.9628545 -4.177796,-1.1036086 -6.293499,-0.4123145 -0.4463,0.145826 -1.667237,0.7067343 -1.877589,0.8625795 -0.07947,0.058878 0.05148,0.3685602 2.105701,4.9796143 1.204744,2.704257 2.220524,4.987445 2.257289,5.073751 0.03825,0.08979 0.08413,0.139416 0.107244,0.116009 0.02222,-0.0225 0.941911,-2.264808 2.04376,-4.982905 z"
   id="path340" /><path
   style="fill:#ffb380;stroke-width:0.0464037"
   d="M 14.549217,37.858677 C 12.578401,37.606108 10.419697,36.650547 8.6612172,35.252324 8.0704227,34.782565 6.824439,33.53596 6.3313954,32.921341 4.0203947,30.040489 2.5983434,26.392574 2.1561595,22.210821 2.0612087,21.312867 2.0633162,18.656925 2.1597099,17.736499 2.6626894,12.933743 4.5056098,8.8033647 7.466632,5.8425535 c 1.1864873,-1.1864028 2.2172348,-1.9384554 3.55425,-2.593246 0.862893,-0.4225943 1.595473,-0.6878006 2.5058,-0.9071429 0.896191,-0.2159362 1.27232,-0.2540395 2.504583,-0.253724 1.184501,3.035e-4 1.643189,0.050628 2.574737,0.2824852 1.617464,0.4025783 3.336569,1.2624676 4.704548,2.3531956 3.094536,2.4673603 5.350404,6.4326206 6.22222,10.9371316 0.291715,1.507234 0.396707,2.655522 0.396707,4.338747 0,1.730903 -0.107266,2.862708 -0.419996,4.431555 -1.344231,6.743494 -5.609225,11.904678 -10.904246,13.195521 -0.9634,0.234862 -1.443393,0.285408 -2.648313,0.278887 -0.596493,-0.0032 -1.22996,-0.02451 -1.407705,-0.04729 z m 2.420564,-2.895252 c 0.713557,-0.09301 1.279686,-0.225457 1.819305,-0.425638 0.532871,-0.197679 1.518802,-0.662044 1.668517,-0.785858 l 0.109575,-0.09062 -0.266099,-0.624159 C 19.65454,31.520632 16.90196,25.294432 16.286299,23.955914 16.177713,23.719836 16.073456,23.52668 16.054617,23.52668 c -0.01884,0 -0.259315,0.548144 -0.534392,1.218098 -1.978151,4.817808 -3.687278,9.055691 -3.687278,9.142826 0,0.07144 0.571105,0.352719 1.243022,0.612213 0.61106,0.235992 1.367354,0.412166 2.16765,0.50494 0.373196,0.04326 1.235551,0.02261 1.726162,-0.04133 z M 9.7196385,31.890951 c 1.0709635,-2.569693 4.0622645,-9.955503 4.0622645,-10.030122 0,-0.06396 -1.052875,-0.06631 -2.853829,-0.0063 -0.714617,0.02379 -2.2180972,0.06608 -3.341067,0.09398 -1.1229699,0.02789 -2.1543615,0.06218 -2.2919815,0.07618 l -0.2502181,0.02546 0.027465,0.378667 c 0.065647,0.905099 0.4795142,2.722854 0.8973404,3.94123 0.5771381,1.682928 1.4641015,3.36847 2.3741321,4.511684 0.4420863,0.555365 1.1325188,1.322505 1.1902654,1.322505 0.030297,0 0.1138302,-0.140951 0.1856283,-0.313225 z M 23.305396,31.322455 c 1.007875,-1.19401 1.905655,-2.758769 2.555885,-4.454706 0.571755,-1.491259 1.035411,-3.537467 1.130876,-4.990782 l 0.0288,-0.438452 h -0.311532 c -1.150637,0 -8.373494,0.210085 -8.407964,0.244555 -0.03362,0.03362 0.126917,0.431041 0.772843,1.913218 0.456111,1.046616 2.415369,5.440346 3.409987,7.64706 0.19109,0.423962 0.28793,0.589778 0.338728,0.579995 0.03912,-0.0075 0.256193,-0.232934 0.482376,-0.500888 z M 7.4477958,18.51327 c 3.2063312,-0.08512 6.2585022,-0.185539 6.2795602,-0.206596 0.02716,-0.02716 -0.07661,-0.267052 -1.826717,-4.223147 C 9.9859253,9.7553378 9.287064,8.2018761 9.2285374,8.1438515 9.1755346,8.0913039 9.0210014,8.2572974 8.4509383,8.9791183 6.5103751,11.436283 5.3035226,14.663952 4.9841806,18.250796 l -0.032244,0.362165 0.3430572,-0.02582 c 0.1886815,-0.0142 1.1574424,-0.04744 2.152802,-0.07387 z M 22.767399,18.098896 c 1.783035,-0.05025 3.455919,-0.104462 3.71752,-0.120475 0.561446,-0.03437 0.523612,0.05202 0.381093,-0.870151 -0.513288,-3.321227 -1.6026,-5.953006 -3.398834,-8.2115897 -0.464981,-0.5846668 -1.012733,-1.1610065 -1.058925,-1.1141917 -0.03408,0.034537 -4.154993,10.1541704 -4.205181,10.3265604 -0.02174,0.07469 0.03034,0.08121 0.649402,0.08121 0.370173,0 2.13189,-0.04111 3.914925,-0.09136 z m -6.683271,-1.86929 c 0.05393,-0.13394 0.630797,-1.548632 1.281935,-3.143759 1.775996,-4.350756 2.819552,-6.9386247 2.819552,-6.9920867 0,-0.1119313 -1.309873,-0.6517916 -2.052273,-0.8458383 -0.863357,-0.225662 -1.146996,-0.2592215 -2.170465,-0.2568037 -0.848242,0.002 -1.014401,0.015635 -1.534082,0.1258526 -0.320544,0.067983 -0.7695,0.1847247 -0.99768,0.2594263 -0.411898,0.134847 -1.64797,0.6796356 -1.865674,0.8222807 -0.148028,0.096992 -0.13124,0.1772958 0.2009,0.9609769 0.41254,0.9733856 4.068197,9.1914272 4.117223,9.2556582 0.07187,0.09417 0.0974,0.07053 0.200564,-0.185707 z"
   id="path346" /><path
   style="fill:#ff6600;stroke-width:0.0464037"
   d="M 22.612617,31.386126 C 22.31289,30.737715 18.492285,22.133367 18.40893,21.919044 l -0.0748,-0.192325 0.798131,-0.02935 c 1.941962,-0.07141 7.793635,-0.216173 7.816443,-0.193365 0.0398,0.0398 -0.07635,1.096927 -0.204381,1.860265 -0.205599,1.225786 -0.61269,2.677419 -1.086611,3.87471 -0.256579,0.648208 -0.891537,1.887964 -1.271498,2.482599 -0.378776,0.59278 -0.991973,1.416599 -1.359871,1.826961 l -0.223444,0.249235 z"
   id="path348" /><path
   style="fill:#ff6600;stroke-width:0.0464037"
   d="m 18.291261,18.081872 c 0.0083,-0.03409 0.944101,-2.350989 2.079665,-5.148669 l 2.064662,-5.0866913 0.132759,0.125468 c 0.255418,0.2413911 0.939247,1.0577625 1.2927,1.5432544 1.580917,2.1715029 2.657336,5.0798059 3.024433,8.1715089 l 0.02562,0.215746 -0.613321,0.02852 c -0.635664,0.02956 -7.338447,0.213162 -7.774496,0.212957 -0.182578,-9.3e-5 -0.243108,-0.01629 -0.232019,-0.0621 z"
   id="path350" /><path
   style="fill:#ff6600;stroke-width:0.0464037"
   d="M 13.827702,11.661151 C 11.508206,6.4508034 11.493326,6.4163922 11.524513,6.3351202 c 0.03989,-0.1039457 1.24987,-0.6683044 1.888204,-0.880694 0.938687,-0.3123246 1.556547,-0.4104607 2.596564,-0.4124184 0.920006,-0.00173 1.351657,0.053017 2.180974,0.2766263 0.723078,0.1949638 1.902436,0.702641 1.902665,0.8190386 1.39e-4,0.066062 -4.08012,10.1544653 -4.129532,10.2102533 -0.01803,0.02036 -0.979093,-2.088687 -2.135686,-4.686775 z"
   id="path352" /><path
   style="fill:#ff6600;stroke-width:0.0464037"
   d="m 5.0406264,18.271462 c 0.1730162,-1.709747 0.436859,-3.003759 0.897176,-4.400181 0.6741042,-2.04497 1.8221108,-4.1061925 2.9829332,-5.3557953 L 9.2127483,8.2011398 11.448641,13.2305 l 2.235893,5.029361 -0.798183,0.03298 c -0.700473,0.02894 -7.5002488,0.223872 -7.7681554,0.222693 -0.095471,-4.18e-4 -0.100594,-0.01654 -0.077569,-0.244069 z"
   id="path354" /><path
   style="fill:#ff6600;stroke-width:0.0464037"
   d="M 9.2035084,31.774361 C 8.3152802,30.867587 7.3351266,29.410506 6.7212252,28.084237 5.9215254,26.356571 5.3095003,24.177521 5.1265198,22.406459 l -0.031838,-0.308157 0.6661161,-0.02885 c 1.1209358,-0.04855 7.7714031,-0.222269 7.8738171,-0.205676 0.08782,0.01423 -0.0819,0.454213 -1.964398,5.092399 -1.133288,2.792253 -2.0778956,5.094196 -2.0991278,5.115428 -0.021232,0.02123 -0.1866437,-0.112526 -0.3675809,-0.297241 z"
   id="path356" /><path
   style="fill:#ff6600;stroke-width:0.0464037"
   d="m 15.452436,34.958342 c -1.21726,-0.113954 -2.072764,-0.346789 -3.168755,-0.862412 -0.307728,-0.144775 -0.401434,-0.209656 -0.382051,-0.264526 0.117815,-0.33351 4.136284,-10.210099 4.154054,-10.20983 0.02152,3.26e-4 3.355018,7.485557 4.119942,9.251146 0.264482,0.610472 0.326466,0.793748 0.279353,0.825992 -0.220902,0.151185 -1.443476,0.707913 -1.84709,0.841116 -1.022124,0.337327 -2.263684,0.501997 -3.155453,0.418514 z"
   id="path358" /></svg>
