<?xml version="1.0" encoding="UTF-8" standalone="no"?>
<svg
   xmlns:dc="http://purl.org/dc/elements/1.1/"
   xmlns:cc="http://creativecommons.org/ns#"
   xmlns:rdf="http://www.w3.org/1999/02/22-rdf-syntax-ns#"
   xmlns:svg="http://www.w3.org/2000/svg"
   xmlns="http://www.w3.org/2000/svg"
   xmlns:sodipodi="http://sodipodi.sourceforge.net/DTD/sodipodi-0.dtd"
   xmlns:inkscape="http://www.inkscape.org/namespaces/inkscape"
   version="1.1"
   id="Layer_1"
   x="0px"
   y="0px"
   viewBox="0 0 40 40"
   style="enable-background:new 0 0 40 40;"
   xml:space="preserve"
   width="40"
   height="40"
   sodipodi:docname="Citrus_unchecked.svg"
   inkscape:version="1.0.2 (394de47547, 2021-03-26)"><metadata
   id="metadata134"><rdf:RDF><cc:Work
       rdf:about=""><dc:format>image/svg+xml</dc:format><dc:type
         rdf:resource="http://purl.org/dc/dcmitype/StillImage" /><dc:title></dc:title></cc:Work></rdf:RDF></metadata><defs
   id="defs132" /><sodipodi:namedview
   pagecolor="#ffffff"
   bordercolor="#666666"
   borderopacity="1"
   objecttolerance="10"
   gridtolerance="10"
   guidetolerance="10"
   inkscape:pageopacity="0"
   inkscape:pageshadow="2"
   inkscape:window-width="1848"
   inkscape:window-height="1016"
   id="namedview130"
   showgrid="false"
   inkscape:zoom="20.625"
   inkscape:cx="20"
   inkscape:cy="20"
   inkscape:window-x="72"
   inkscape:window-y="27"
   inkscape:window-maximized="1"
   inkscape:current-layer="Layer_1" />
<g
   id="g97">
	<path
   style="fill:#F5CE85;"
   d="M16.661,1.504C31.539,1.73,34.654,12.107,35.835,16.041c0.314,1.047,0.444,1.481,0.765,1.668   c1.208,0.705,1.9,1.523,1.9,2.247c0,0.595-0.763,1.618-1.774,2.379c-0.3,0.225-0.38,0.672-0.554,1.652   c-0.699,3.931-2.546,14.311-19.689,14.509L16.661,1.504z"
   id="path91" />
	<g
   id="g95">
		<path
   style="fill:#967A44;"
   d="M17.159,2.016c14.077,0.448,17.059,10.377,18.198,14.169c0.355,1.181,0.501,1.67,0.992,1.956    C37.566,18.852,38,19.544,38,19.956c0,0.376-0.647,1.282-1.575,1.979c-0.458,0.344-0.554,0.885-0.746,1.964    c-0.672,3.78-2.436,13.696-18.694,14.088L17.159,2.016 M16.164,1l-0.183,38c21.456,0,20.15-15.593,21.045-16.265    C37.952,22.038,39,20.869,39,19.956c0-0.913-0.757-1.867-2.148-2.679C35.948,16.75,34.963,1,16.164,1L16.164,1z"
   id="path93" />
	</g>
</g>
<g
   id="g103">
	<path
   style="fill:#F2D75C;"
   d="M16,38.5C8.005,38.5,1.5,30.201,1.5,20S8.005,1.5,16,1.5S30.5,9.799,30.5,20S23.995,38.5,16,38.5z"
   id="path99" />
	<path
   style="fill:#BA9B48;"
   d="M16,2c7.72,0,14,8.075,14,18s-6.28,18-14,18S2,29.925,2,20S8.28,2,16,2 M16,1C7.716,1,1,9.505,1,20   s6.716,19,15,19c8.285,0,15-8.505,15-19S24.285,1,16,1L16,1z"
   id="path101" />
</g>
<g
   id="g107">
	<path
   style="fill:#FFF5C4;"
   d="M15.948,16.479l4.208-10.38c-2.874-1.591-6.02-1.414-8.721,0.243L15.948,16.479z"
   id="path105" />
</g>
<g
   id="g111">
	<path
   style="fill:#FFF5C4;"
   d="M18.22,18.176l8.715-0.237c-0.41-3.977-1.978-7.683-4.508-10.131L18.22,18.176z"
   id="path109" />
</g>
<g
   id="g115">
	<path
   style="fill:#FFF5C4;"
   d="M22.786,31.843c1.154-1.218,2.144-2.755,2.893-4.597c0.747-1.853,1.18-3.813,1.319-5.789   l-8.73,0.239L22.786,31.843z"
   id="path113" />
</g>
<g
   id="g119">
	<path
   style="fill:#FFF5C4;"
   d="M16.053,23.522l-4.21,10.372c2.876,1.599,6.02,1.407,8.716-0.236L16.053,23.522z"
   id="path117" />
</g>
<g
   id="g123">
	<path
   style="fill:#FFF5C4;"
   d="M9.214,8.153c-1.156,1.209-2.149,2.751-2.896,4.604c-0.751,1.847-1.178,3.806-1.32,5.783   l8.728-0.243L9.214,8.153z"
   id="path121" />
</g>
<g
   id="g127">
	<path
   style="fill:#FFF5C4;"
   d="M13.778,21.82l-8.716,0.243c0.41,3.974,1.98,7.683,4.506,10.133L13.778,21.82z"
   id="path125" />
</g>
<path
   style="fill:#ffd5d5;stroke-width:0.0484848"
   d="m 22.273111,37.295335 c 1.136625,-0.679132 2.057069,-1.401483 3.03722,-2.383567 3.078126,-3.084199 4.992454,-7.323656 5.584011,-12.366313 0.122764,-1.046489 0.12209,-4.054308 -0.0011,-5.09091 C 30.446198,13.694431 29.337013,10.536705 27.480236,7.7382211 26.828124,6.7553766 26.157135,5.9354606 25.310962,5.0874758 24.502075,4.2768554 23.806449,3.7016332 22.936257,3.1237981 22.617865,2.9123758 22.380026,2.7393939 22.407727,2.7393939 c 0.08555,0 1.322609,0.3718079 1.848445,0.5555674 1.82966,0.6393946 3.598364,1.6378682 5.084782,2.8704746 0.627349,0.5202259 1.733019,1.6526523 2.26007,2.31476 1.101047,1.3831913 2.040736,3.0423141 2.765608,4.8829801 0.298306,0.757488 0.506325,1.368945 1.124012,3.303951 0.345591,1.082622 0.435645,1.22301 1.038934,1.619625 0.831124,0.546399 1.348424,1.104136 1.430661,1.542493 0.07675,0.409137 -0.491681,1.203426 -1.410851,1.971419 -0.568413,0.474926 -0.623943,0.613268 -0.941184,2.344791 -0.423746,2.312836 -0.877654,3.764783 -1.667306,5.333333 -0.679016,1.348786 -1.443638,2.411539 -2.497381,3.471127 -2.135958,2.147806 -4.986024,3.584847 -8.691178,4.382207 -0.732543,0.157645 -0.796432,0.152741 -0.479228,-0.03679 z"
   id="path138" /><path
   style="fill:#ffaaaa;stroke-width:0.0484848"
   d="M 15.321212,37.959408 C 14.103485,37.838524 13.388947,37.693679 12.436364,37.374619 8.6206177,36.096564 5.3089071,32.642096 3.5188765,28.072727 1.3094615,22.432806 1.5614411,15.765743 4.1859888,10.421771 5.4167549,7.9157469 7.1790599,5.7590825 9.1636364,4.3302518 12.835899,1.6863415 17.191194,1.2991641 21.090909,3.2699399 c 1.344588,0.6795065 2.449785,1.5058837 3.612121,2.7008546 1.344918,1.3826785 2.316817,2.7958693 3.224429,4.6884835 2.934354,6.118917 2.693575,13.998796 -0.607132,19.869323 -1.344886,2.39197 -3.295853,4.473098 -5.380933,5.739929 -1.33847,0.813214 -2.933038,1.389715 -4.415947,1.596545 -0.546932,0.07628 -1.830289,0.131257 -2.202235,0.09433 z M 17.284848,34.908 c 0.565312,-0.0913 1.207159,-0.263243 1.721213,-0.461096 0.441921,-0.170089 1.303791,-0.590396 1.466741,-0.715283 l 0.109166,-0.08367 -2.246724,-5.054465 c -1.235698,-2.779955 -2.257563,-5.065303 -2.270811,-5.078551 -0.01325,-0.01325 -0.968733,2.305016 -2.123301,5.151699 -1.154569,2.846682 -2.109006,5.192855 -2.120973,5.213717 -0.03459,0.0603 0.968844,0.512912 1.587433,0.716039 1.261156,0.414127 2.584112,0.520449 3.877256,0.311606 z m -5.57979,-7.912251 c 1.148885,-2.832338 2.088881,-5.163585 2.088881,-5.180549 0,-0.01696 -0.365454,-0.01667 -0.812121,6.64e-4 -0.848238,0.03291 -7.4168454,0.220064 -7.7333332,0.220342 -0.1728375,1.45e-4 -0.1818025,0.0079 -0.1815007,0.157734 4.917e-4,0.244078 0.1765852,1.365273 0.314914,2.005072 0.6585402,3.045885 1.9703545,5.679924 3.8095351,7.6493 0.1925867,0.20622 0.3669396,0.357441 0.3874507,0.336045 0.020511,-0.0214 0.9772901,-2.356269 2.1261741,-5.188607 z m 11.546732,4.360043 c 0.816207,-0.973942 1.43887,-1.944643 2.012642,-3.13761 0.949571,-1.974314 1.469625,-3.926345 1.736107,-6.516502 l 0.02695,-0.261956 -1.101624,0.02809 c -4.925173,0.125606 -7.585205,0.205894 -7.62442,0.230131 -0.02549,0.01575 0.970744,2.312526 2.213844,5.103943 1.2431,2.791417 2.278552,5.06395 2.301005,5.050074 0.02245,-0.01388 0.218425,-0.237154 0.435495,-0.496174 z M 9.8526104,18.431571 c 2.1122696,-0.05968 3.8519526,-0.119973 3.8659646,-0.133984 0.01401,-0.01401 -0.993214,-2.313002 -2.238277,-5.108868 L 9.216545,8.1053256 8.9786599,8.3678143 C 7.3967699,10.113311 6.1179732,12.651171 5.4790204,15.313088 5.252935,16.254973 5.1466378,16.909857 4.9917418,18.315152 l -0.025385,0.230303 0.5228821,-0.0027 c 0.2875852,-0.0015 2.2511022,-0.05152 4.3633713,-0.111196 z M 23.259357,18.058315 c 1.939312,-0.05207 3.562322,-0.09468 3.606687,-0.09468 0.07101,0 0.07671,-0.04366 0.04759,-0.36494 -0.01819,-0.200717 -0.08679,-0.67121 -0.152453,-1.045541 C 26.263499,13.715872 25.159957,11.091891 23.643253,9.1393939 23.17616,8.5380916 22.466249,7.768816 22.42089,7.8148136 22.38133,7.8549236 18.206061,18.12347 18.206061,18.180638 c 0,0.01694 0.343636,0.01765 0.763636,0.0016 0.42,-0.01607 2.350347,-0.07183 4.28966,-0.123903 z M 18.036029,11.393939 C 19.148545,8.6472727 20.088795,6.327384 20.125473,6.2386312 L 20.192161,6.0772623 19.647596,5.8193044 C 17.204956,4.6622384 14.626628,4.6969667 12.16061,5.9201492 11.808946,6.09458 11.497904,6.2653908 11.469407,6.2997286 c -0.03864,0.046555 0.510487,1.3249216 2.159276,5.0268064 1.2161,2.730406 2.232311,5.01892 2.258249,5.085586 0.03783,0.09723 0.05499,0.106821 0.08675,0.04848 0.02177,-0.04 0.949831,-2.32 2.062347,-5.066667 z"
   id="path140" /><path
   style="fill:#c8beb7;stroke-width:0.0484848"
   d=""
   id="path144" /><path
   style="fill:#c8beb7;stroke-width:0.0484848"
   d="m 17.842424,38.881086 c 1.1905,-0.191594 2.521824,-0.614535 3.55298,-1.128726 0.258443,-0.128873 0.516858,-0.21187 0.834899,-0.268147 1.213357,-0.214703 2.84353,-0.675294 4,-1.130164 4.766831,-1.874918 7.729422,-5.251193 9.021829,-10.2816 0.09082,-0.353486 0.263714,-1.171667 0.384215,-1.818181 0.234163,-1.256334 0.319024,-1.600955 0.464403,-1.88592 0.05087,-0.09971 0.309369,-0.368386 0.579405,-0.602215 0.516907,-0.447601 1.046635,-1.065247 1.223651,-1.426739 0.06068,-0.123925 0.105236,-0.303513 0.10313,-0.415702 -0.0084,-0.445128 -0.505578,-1.050315 -1.294152,-1.575167 -0.573686,-0.38183 -0.691957,-0.495536 -0.860393,-0.827184 -0.07615,-0.149929 -0.334776,-0.903766 -0.574735,-1.675193 C 34.643168,13.806371 34.172193,12.613452 33.474735,11.279574 31.195167,6.9199384 27.58888,4.0662686 22.715152,2.7654699 22.277005,2.6485285 21.900877,2.5025179 21.357576,2.2384666 20.329783,1.7389467 19.440198,1.4387327 18.230303,1.1830856 l -0.436364,-0.092202 0.557576,0.024074 c 1.216123,0.052507 2.957566,0.3177576 4.32344,0.6585321 5.357905,1.3367533 9.323889,4.4854548 11.788479,9.3591923 0.658286,1.301765 1.118663,2.491041 1.734021,4.47944 0.214569,0.693333 0.43258,1.347878 0.48447,1.454545 0.07332,0.150716 0.194245,0.258449 0.542574,0.483382 0.645212,0.416642 1.276429,1.05938 1.514693,1.542338 0.24316,0.492884 0.285442,0.97324 0.12345,1.402511 -0.221138,0.586009 -1.009409,1.566387 -1.655799,2.05933 -0.276379,0.21077 -0.344297,0.35979 -0.475225,1.042701 -0.332932,1.736558 -0.409794,2.110565 -0.541186,2.633375 -0.982924,3.911064 -2.951742,6.917939 -5.911644,9.028553 -3.064627,2.185288 -7.249626,3.427023 -12.363636,3.668424 l -0.509091,0.02403 z"
   id="path146" /><path
   style="fill:#c8beb7;stroke-width:0.0484848"
   d="M 14.642424,38.903965 C 12.524103,38.649246 10.430876,37.812482 8.6060606,36.49094 6.4756189,34.948062 4.6478763,32.735414 3.3308619,30.104834 2.2390945,27.924159 1.5086504,25.428246 1.1824151,22.763636 1.0566366,21.736308 1.0048801,19.313828 1.0864507,18.271981 1.4415818,13.736122 2.9590323,9.6726303 5.4836529,6.4969697 6.143264,5.6672608 7.5380039,4.3041882 8.3481314,3.6975295 10.32285,2.2187744 12.481907,1.3371791 14.725362,1.0935523 15.793384,0.97757102 17.324965,1.0491831 18.4,1.2653671 c 4.696336,0.9444092 8.878685,4.8499691 11.00215,10.2740269 1.057659,2.701625 1.554939,5.407383 1.554939,8.460606 0,2.036288 -0.187864,3.676814 -0.632954,5.527273 -1.04647,4.350701 -3.313838,8.104873 -6.366875,10.541891 -1.824556,1.456411 -3.758371,2.340972 -6.017866,2.752677 -0.61733,0.112484 -2.627978,0.162567 -3.29697,0.08212 z m 2.884849,-0.992083 c 4.712175,-0.679374 8.8298,-4.345072 10.971958,-9.76774 0.372524,-0.943007 0.556412,-1.508771 0.811157,-2.495657 1.320978,-5.117493 0.768241,-10.80781 -1.487291,-15.311358 C 26.896224,8.4864698 25.889845,7.070543 24.559536,5.7454545 22.511653,3.7056078 20.101346,2.4564406 17.481618,2.0772481 c -0.754455,-0.1092037 -2.208781,-0.1092037 -2.963236,0 C 12.38102,2.3866206 10.314142,3.3117757 8.5090909,4.7670661 7.9052044,5.253939 6.8395627,6.3236194 6.348129,6.9362177 4.6317498,9.075775 3.4146715,11.542621 2.6896118,14.351515 c -0.9423682,3.650752 -0.9423682,7.646218 0,11.29697 0.2547449,0.986886 0.4386336,1.55265 0.8111571,2.495657 1.8923599,4.790328 5.3663341,8.264721 9.4345351,9.435671 0.671894,0.193392 1.485315,0.347035 2.157476,0.407517 0.607239,0.05464 1.785467,0.01812 2.434493,-0.07545 z"
   id="path148" /><path
   style="fill:#c8beb7;stroke-width:0.0484848"
   d="M 14.512644,37.843917 C 11.898217,37.447736 9.6764233,36.310993 7.6424412,34.328896 4.6154172,31.379088 2.7440991,27.318635 2.1783557,22.472727 2.0734615,21.574251 2.0334875,19.343382 2.1053781,18.4 2.2671053,16.277738 2.6986268,14.231076 3.3677644,12.41263 5.4165909,6.844746 9.4592446,3.0295508 14.181818,2.2070252 c 0.769354,-0.1339975 2.099259,-0.1816417 2.86425,-0.1026124 2.33543,0.2412673 4.575264,1.2130279 6.483844,2.8130406 3.466331,2.9059163 5.655681,7.3001876 6.294644,12.6340616 0.10967,0.915497 0.125983,3.700611 0.02698,4.606061 -0.531495,4.860772 -2.266303,8.855877 -5.12387,11.799803 -2.080112,2.142976 -4.331975,3.389474 -6.933725,3.838102 -0.869726,0.14997 -2.456682,0.173395 -3.281295,0.04844 z m 2.86209,-2.929527 c 0.558493,-0.103782 1.26179,-0.299849 1.700082,-0.473955 0.565231,-0.224531 1.507002,-0.719234 1.507002,-0.791614 0,-0.03558 -0.848439,-1.970213 -1.885419,-4.299181 -2.426072,-5.448746 -2.574459,-5.778853 -2.617321,-5.822572 -0.04476,-0.04566 -0.175745,0.267011 -2.438375,5.820553 -1.436214,3.525133 -1.830744,4.53805 -1.787746,4.589859 0.06713,0.08089 0.892432,0.446207 1.462934,0.64757 0.434084,0.153212 1.149197,0.320583 1.69017,0.395581 0.452265,0.0627 1.891365,0.02245 2.368673,-0.06624 z M 9.7044558,31.939394 c 0.3553522,-0.803068 4.0894832,-10.029782 4.0894832,-10.104759 0,-0.05253 -0.871986,-0.05029 -2.424242,0.0062 -0.68,0.02475 -2.2181818,0.06836 -3.4181818,0.0969 -1.2,0.02854 -2.34,0.06427 -2.5333334,0.07939 l -0.3515151,0.02749 v 0.235087 c 0,0.129298 0.06372,0.612891 0.1415993,1.074651 0.5088469,3.017032 1.6583706,5.692756 3.343829,7.783366 0.3676204,0.455989 0.9469397,1.080441 1.0023525,1.080441 0.014655,0 0.082159,-0.125455 0.1500083,-0.278788 z M 23.478695,31.105086 c 1.604292,-1.970239 2.750345,-4.595953 3.281789,-7.518881 0.126805,-0.697425 0.302582,-2.115058 0.266701,-2.150939 -0.04079,-0.04079 -8.651613,0.220548 -8.696137,0.263926 -0.05123,0.04992 0.176552,0.606743 1.199067,2.931111 1.475126,3.353236 3.153101,7.065396 3.251116,7.192395 0.05576,0.07224 0.04687,0.08138 0.697464,-0.717612 z M 10.957959,18.422898 c 1.413123,-0.04239 2.617686,-0.09216 2.676808,-0.110594 0.105104,-0.03277 0.09959,-0.05185 -0.247961,-0.857759 C 12.903829,16.334601 9.3993522,8.4417833 9.2931535,8.2347806 L 9.208209,8.0692063 8.9425784,8.3739971 C 8.4489232,8.9404286 8.2724853,9.1697973 7.8659132,9.7736625 6.384184,11.974414 5.437395,14.580736 5.0702159,17.469659 5.0149305,17.904639 4.969697,18.328163 4.969697,18.410825 v 0.150295 l 1.7094744,-0.03057 c 0.9402109,-0.01681 2.8656654,-0.06526 4.2787876,-0.107652 z m 10.472344,-0.287539 c 1.253333,-0.03816 2.933333,-0.08252 3.733333,-0.09858 0.8,-0.01606 1.525455,-0.04008 1.612122,-0.05337 0.152212,-0.02335 0.157575,-0.03199 0.157575,-0.253955 0,-0.341836 -0.221346,-1.632598 -0.417135,-2.432487 C 25.982484,13.116496 25.020003,10.967533 23.889955,9.4332688 23.39392,8.7598027 22.460336,7.7199782 22.409861,7.7847413 c -0.02106,0.027014 -0.0013,-0.021157 -1.472831,3.5849557 -1.77341,4.345787 -2.730969,6.724594 -2.730969,6.784382 0,0.06857 0.441213,0.06601 3.224242,-0.01872 z m -5.209374,-2.211512 c 0.123538,-0.304783 1.068004,-2.632386 2.098813,-5.172453 1.030808,-2.540066 1.874197,-4.6369018 1.874197,-4.6596344 0,-0.022733 -0.193067,-0.1310349 -0.429038,-0.2406718 -1.432073,-0.6653695 -2.593258,-0.9161866 -4.022075,-0.868772 -0.861666,0.028594 -1.539984,0.1453277 -2.309797,0.3974997 -0.840758,0.275412 -1.928009,0.8083523 -1.95708,0.959307 -0.02112,0.1096905 0.507938,1.340798 2.64617,6.1575415 0.979501,2.206498 1.8019,4.004956 1.827553,3.996574 0.02565,-0.0084 0.147718,-0.264609 0.271257,-0.569391 z"
   id="path150" /><path
   style="fill:#e9afaf;stroke-width:0.0484848"
   d="m 22.572032,31.286357 c -0.286287,-0.622965 -4.092746,-9.188609 -4.170516,-9.384881 -0.03468,-0.08752 -0.05466,-0.165906 -0.04441,-0.174187 0.02026,-0.01635 7.8258,-0.228091 8.32075,-0.225711 l 0.302103,0.0015 -0.02293,0.206061 c -0.172866,1.553584 -0.354963,2.560176 -0.655573,3.623843 -0.525568,1.859658 -1.30065,3.530111 -2.311177,4.981043 -0.397874,0.571274 -1.058678,1.372821 -1.158446,1.405179 -0.02915,0.0095 -0.146068,-0.185303 -0.259807,-0.432799 z"
   id="path152" /><path
   style="fill:#e9afaf;stroke-width:0.0484848"
   d="m 18.297174,18.053304 c 0.02414,-0.06265 0.943087,-2.328456 2.042101,-5.035122 1.099015,-2.706667 2.018618,-4.9740619 2.043564,-5.0386559 0.04524,-0.1171363 0.046,-0.1168193 0.290396,0.1212122 0.680514,0.6627785 1.644221,1.9895597 2.198323,3.0265347 0.757847,1.418271 1.302034,2.903178 1.671416,4.560744 0.146357,0.656764 0.340957,1.846543 0.341557,2.088278 l 3.39e-4,0.12781 -0.763636,0.03098 c -0.42,0.01704 -1.996364,0.06245 -3.50303,0.100929 -1.506667,0.03847 -3.105133,0.08373 -3.552148,0.100578 l -0.812753,0.03063 0.04389,-0.113909 z"
   id="path154" /><path
   style="fill:#e9afaf;stroke-width:0.0484848"
   d="m 13.751686,11.485635 c -1.20821,-2.7146532 -2.200244,-4.9890638 -2.204519,-5.0542461 -0.0062,-0.094002 0.04237,-0.1486907 0.234651,-0.2644209 0.699828,-0.4212043 1.922479,-0.8625644 2.860606,-1.0326389 0.594336,-0.1077481 2.042405,-0.1226631 2.59394,-0.026718 0.872201,0.1517293 1.700441,0.4152874 2.431852,0.773851 l 0.464325,0.2276283 -2.077457,5.1151516 c -1.142602,2.813333 -2.084026,5.133595 -2.092054,5.156138 -0.008,0.02254 -1.003133,-2.180092 -2.211344,-4.894745 z"
   id="path156" /><path
   style="fill:#e9afaf;stroke-width:0.0484848"
   d="M 5.0476099,18.193939 C 5.3091288,15.357701 6.1756624,12.62565 7.5084229,10.435362 7.8966202,9.7973898 8.5437575,8.9204487 8.9281067,8.5115365 L 9.2136144,8.2077826 11.438623,13.211501 c 1.781632,4.00663 2.211422,5.01232 2.156829,5.046882 -0.0375,0.02374 -0.286361,0.04387 -0.553028,0.04473 -0.266666,8.64e-4 -1.957576,0.04446 -3.7575755,0.09688 -1.8,0.05242 -3.4960291,0.09569 -3.7689536,0.09614 l -0.4962263,8.29e-4 z"
   id="path158" /><path
   style="fill:#e9afaf;stroke-width:0.0484848"
   d="M 9.126396,31.688378 C 8.6926837,31.232621 8.043259,30.395598 7.6753582,29.818182 6.5562511,28.061756 5.7103295,25.819566 5.2882378,23.490909 5.1234965,22.58204 5.0813856,22.084998 5.16907,22.084354 c 0.037012,-2.72e-4 1.9749281,-0.05446 4.3064814,-0.120408 2.3315526,-0.06595 4.2437986,-0.114821 4.2494336,-0.108597 0.01368,0.01511 -4.1248075,10.20912 -4.1581569,10.242469 -0.014315,0.01432 -0.2125098,-0.169932 -0.4404321,-0.40944 z"
   id="path160" /><path
   style="fill:#f4d7d7;stroke-width:0.0484848"
   d="m 15.127273,34.928488 c -0.560154,-0.05839 -1.270125,-0.218844 -1.828862,-0.413328 -0.585722,-0.203876 -1.395381,-0.582994 -1.395381,-0.653379 0,-0.0279 0.918637,-2.312757 2.041415,-5.077464 1.122778,-2.764708 2.056602,-5.066586 2.075164,-5.115285 0.0236,-0.06192 0.702418,1.417892 2.257454,4.921212 1.223037,2.755366 2.231413,5.024653 2.240834,5.04286 0.02891,0.05587 -1.436525,0.754167 -1.899715,0.90523 -1.150514,0.375224 -2.349062,0.509177 -3.490909,0.390154 z"
   id="path162" /><path
   style="fill:#f4d7d7;stroke-width:0.0484848"
   d="M 22.729308,31.53537 C 22.613429,31.344783 18.4,21.873949 18.4,21.804066 c 0,-0.05401 0.715467,-0.088 3.321212,-0.15778 3.927989,-0.105185 5.188532,-0.132403 5.209492,-0.112486 0.03449,0.03277 -0.138289,1.386943 -0.268266,2.102564 -0.381115,2.098324 -1.126637,4.111623 -2.16943,5.858601 -0.32904,0.551236 -1.062757,1.553322 -1.42881,1.951421 l -0.234159,0.254658 z"
   id="path164" /><path
   style="fill:#f4d7d7;stroke-width:0.0484848"
   d="m 18.30303,18.126295 c 0,-0.01553 0.907739,-2.266713 2.017198,-5.002618 1.109459,-2.735906 2.037672,-5.028223 2.062695,-5.0940392 0.045,-0.1183642 0.04893,-0.1162757 0.360837,0.1920149 0.698703,0.690594 1.668133,2.0680543 2.238088,3.1800943 0.955662,1.864593 1.538389,3.808593 1.87524,6.255874 l 0.02795,0.203075 -0.206157,0.02624 c -0.113385,0.01443 -1.875247,0.06996 -3.915247,0.123388 -2.04,0.05343 -3.878181,0.107735 -4.084848,0.120679 -0.206667,0.01294 -0.375758,0.01082 -0.375758,-0.0047 z"
   id="path166" /><path
   style="fill:#f4d7d7;stroke-width:0.0484848"
   d="m 15.723049,15.818976 c -0.123047,-0.27377 -0.576963,-1.283218 -1.008701,-2.243218 -1.538598,-3.421177 -3.150712,-7.1028023 -3.150712,-7.195363 0,-0.081261 0.621273,-0.4215667 1.200982,-0.6578444 1.251424,-0.5100559 2.263641,-0.6883639 3.641993,-0.6415588 0.85292,0.028963 1.417092,0.1295412 2.198994,0.3920273 0.332867,0.1117442 1.425199,0.5779866 1.478123,0.6309104 0.01118,0.011181 -0.594278,1.5332801 -1.345465,3.3824423 -0.751186,1.8491622 -1.671524,4.1148402 -2.045195,5.0348402 -0.373672,0.92 -0.694454,1.700358 -0.71285,1.734128 -0.01992,0.03657 -0.123927,-0.139909 -0.257169,-0.436364 z"
   id="path168" /><path
   style="fill:#f4d7d7;stroke-width:0.0484848"
   d="m 5.0666667,18.312241 c 0,-0.241135 0.1196074,-1.147419 0.2443706,-1.851635 0.327644,-1.84936 1.0578433,-3.95006 1.8943067,-5.449702 C 7.7213744,10.085746 8.5952848,8.8616696 9.0518089,8.4245819 L 9.2160372,8.2673456 11.018224,12.327612 c 2.365127,5.32855 2.584704,5.843197 2.520446,5.907456 -0.02999,0.02999 -0.504006,0.04501 -5.1023064,0.161702 -1.0933333,0.02774 -2.2987878,0.06172 -2.6787878,0.0755 l -0.6909091,0.02505 z"
   id="path170" /><path
   style="fill:#f4d7d7;stroke-width:0.0484848"
   d="M 9.1581561,31.670544 C 7.5102568,29.924976 6.266626,27.502375 5.5726575,24.685971 5.3644712,23.841067 5.1636364,22.698264 5.1636364,22.358533 v -0.253706 l 3.1151515,-0.08436 c 1.7133333,-0.0464 3.6333711,-0.09802 4.2667491,-0.114707 l 1.151599,-0.03035 -0.731238,1.813809 c -1.42473,3.53399 -3.3839427,8.340039 -3.4132295,8.372825 -0.00666,0.0075 -0.1841933,-0.168717 -0.3945124,-0.391502 z"
   id="path172" /></svg>
