<?xml version="1.0" encoding="UTF-8" standalone="no"?>
<!-- Created with Inkscape (http://www.inkscape.org/) -->

<svg
   xmlns:dc="http://purl.org/dc/elements/1.1/"
   xmlns:cc="http://creativecommons.org/ns#"
   xmlns:rdf="http://www.w3.org/1999/02/22-rdf-syntax-ns#"
   xmlns:svg="http://www.w3.org/2000/svg"
   xmlns="http://www.w3.org/2000/svg"
   xmlns:sodipodi="http://sodipodi.sourceforge.net/DTD/sodipodi-0.dtd"
   xmlns:inkscape="http://www.inkscape.org/namespaces/inkscape"
   width="20.027828mm"
   height="21.012569mm"
   viewBox="0 0 20.027828 21.012569"
   version="1.1"
   id="svg331"
   inkscape:version="0.92.5 (2060ec1f9f, 2020-04-08)"
   sodipodi:docname="cockatoo.svg">
  <defs
     id="defs325" />
  <sodipodi:namedview
     id="base"
     pagecolor="#ffffff"
     bordercolor="#666666"
     borderopacity="1.0"
     inkscape:pageopacity="0.0"
     inkscape:pageshadow="2"
     inkscape:zoom="0.35"
     inkscape:cx="-463.58071"
     inkscape:cy="-191.71978"
     inkscape:document-units="mm"
     inkscape:current-layer="layer1"
     showgrid="false"
     fit-margin-top="0"
     fit-margin-left="0"
     fit-margin-right="0"
     fit-margin-bottom="0"
     inkscape:window-width="1920"
     inkscape:window-height="1043"
     inkscape:window-x="1920"
     inkscape:window-y="0"
     inkscape:window-maximized="1" />
  <metadata
     id="metadata328">
    <rdf:RDF>
      <cc:Work
         rdf:about="">
        <dc:format>image/svg+xml</dc:format>
        <dc:type
           rdf:resource="http://purl.org/dc/dcmitype/StillImage" />
        <dc:title></dc:title>
      </cc:Work>
    </rdf:RDF>
  </metadata>
  <g
     inkscape:label="Layer 1"
     inkscape:groupmode="layer"
     id="layer1"
     transform="translate(-92.039659,-77.094905)">
    <path
       style="fill:#ffffff;stroke:#000000;stroke-width:0.3425234;stroke-miterlimit:4;stroke-dasharray:none;stroke-opacity:1"
       d="m 96.150916,84.767237 c 3.134239,-1.69167 10.163204,-1.69167 13.297434,0 1.6878,0.91097 1.34753,4.36071 1.83324,5.79081 0.87827,2.58582 1.21854,3.41529 -1.83324,5.06245 -3.13423,1.69167 -10.163195,1.69167 -13.297434,0 -3.196531,-1.72529 -4.691271,-3.77618 -3.576111,-6.44297 0.53832,-1.28733 2.033061,-3.57745 3.576111,-4.41029 z"
       id="rect1336-5-6"
       inkscape:connector-curvature="0"
       sodipodi:nodetypes="sssssss" />
    <path
       style="fill:#28170b;stroke:#000000;stroke-width:0.02021396;stroke-opacity:1"
       d="m 104.51851,87.916237 -1.10274,1.21973 1.64761,0.24 0.5965,0.685 c 0.66735,-0.77502 0.3816,-1.71509 -0.68768,-2.04768 -0.14575,-0.0453 -0.29809,-0.0767 -0.45369,-0.097 z"
       id="path1264-1-2"
       inkscape:connector-curvature="0"
       inkscape:transform-center-x="2.2514066"
       inkscape:transform-center-y="1.2241944" />
    <path
       style="fill:#483737;stroke:#000000;stroke-width:0.00884237;stroke-opacity:1"
       d="m 105.38353,90.091247 -1.96776,-0.95529 a 1.106892,0.59551305 20.610772 0 0 0.60599,0.93373 1.106892,0.59551305 20.610772 0 0 1.36177,0.0215 z"
       id="path1269-1-9"
       inkscape:connector-curvature="0" />
    <rect
       style="fill:#000000;stroke:#000000;stroke-width:0.03685629;stroke-miterlimit:4;stroke-dasharray:none;stroke-opacity:1"
       id="rect2232-50-8"
       width="0.28739679"
       height="0.9327572"
       x="100.28468"
       y="96.794792" />
    <rect
       style="fill:#000000;stroke:#000000;stroke-width:0.07228943;stroke-miterlimit:4;stroke-dasharray:none;stroke-opacity:1"
       id="rect2234-6-1"
       width="0.37147006"
       height="1.8222265"
       x="182.68227"
       y="57.593887"
       transform="matrix(0.86284288,0.50547223,-0.99561637,0.09353094,0,0)"
       inkscape:transform-center-x="-0.86220422"
       inkscape:transform-center-y="0.12139948" />
    <rect
       style="fill:#000000;stroke:#000000;stroke-width:0.07228943;stroke-miterlimit:4;stroke-dasharray:none;stroke-opacity:1"
       id="rect2234-3-4-3"
       width="0.37147006"
       height="1.8222265"
       x="150.55768"
       y="231.20578"
       transform="matrix(-0.86284288,0.50547223,0.99561637,0.09353094,0,0)"
       inkscape:transform-center-x="0.86220562"
       inkscape:transform-center-y="0.12140056" />
    <rect
       style="fill:#000000;stroke:#000000;stroke-width:0.03857945;stroke-miterlimit:4;stroke-dasharray:none;stroke-opacity:1"
       id="rect2232-6-6-1"
       width="0.31489852"
       height="0.9327572"
       x="107.39278"
       y="96.25338" />
    <rect
       style="fill:#000000;stroke:#000000;stroke-width:0.07228943;stroke-miterlimit:4;stroke-dasharray:none;stroke-opacity:1"
       id="rect2234-0-2-1"
       width="0.37147006"
       height="1.8222265"
       x="182.89276"
       y="50.667747"
       transform="matrix(0.86284288,0.50547223,-0.99561637,0.09353094,0,0)"
       inkscape:transform-center-x="-0.86220634"
       inkscape:transform-center-y="0.12140345" />
    <rect
       style="fill:#000000;stroke:#000000;stroke-width:0.07831934;stroke-miterlimit:4;stroke-dasharray:none;stroke-opacity:1"
       id="rect2234-3-6-5-0"
       width="0.39823657"
       height="1.9951407"
       x="160.80659"
       y="250.11699"
       transform="matrix(-0.88186706,0.47149813,0.99634462,0.08542483,0,0)"
       inkscape:transform-center-x="0.9447278"
       inkscape:transform-center-y="0.12139834" />
    <ellipse
       style="fill:#ff0000;stroke:#000000;stroke-width:0.33690825;stroke-miterlimit:4;stroke-dasharray:none;stroke-opacity:1"
       id="path2276-86-3"
       cx="108.19451"
       cy="89.620888"
       rx="1.7723488"
       ry="0.95365822" />
    <ellipse
       style="fill:#ff2a2a;stroke:#000000;stroke-width:0.33690825;stroke-miterlimit:4;stroke-dasharray:none;stroke-opacity:1"
       id="path2276-8-2-4"
       cx="99.747536"
       cy="90.123421"
       rx="1.6573899"
       ry="0.95365822" />
    <path
       style="fill:#ffe680;stroke:#000000;stroke-width:0.17828062;stroke-miterlimit:4;stroke-dasharray:none;stroke-opacity:1"
       d="m 105.0711,77.246297 1.12011,0.34573 c 0,0 1.17906,2.42013 1.17906,3.67341 0,1.41174 -0.82534,3.97592 -0.82534,3.97592 h -1.47383 c 0,0 1.59173,-2.52096 1.59173,-3.9327 0,-1.25328 -1.59173,-4.06236 -1.59173,-4.06236 z"
       id="rect2303-84-0"
       inkscape:connector-curvature="0"
       sodipodi:nodetypes="ccsccsc" />
    <path
       style="fill:#ffe680;stroke:#000000;stroke-width:0.17828062;stroke-miterlimit:4;stroke-dasharray:none;stroke-opacity:1"
       d="m 103.59727,77.246297 1.12011,0.34573 c 0,0 1.17906,2.42013 1.17906,3.67341 0,1.41174 -0.82534,3.97592 -0.82534,3.97592 h -1.47383 c 0,0 1.59173,-2.52096 1.59173,-3.9327 0,-1.25328 -1.59173,-4.06236 -1.59173,-4.06236 z"
       id="rect2303-5-7-3"
       inkscape:connector-curvature="0"
       sodipodi:nodetypes="ccsccsc" />
    <path
       style="fill:#ffe680;stroke:#000000;stroke-width:0.17828062;stroke-miterlimit:4;stroke-dasharray:none;stroke-opacity:1"
       d="m 99.035766,79.911317 1.344124,0.21704 c 0,0 1.41488,1.51931 1.41488,2.30609 0,0.88626 -0.99041,2.49599 -0.99041,2.49599 h -1.768594 c 0,0 1.910084,-1.5826 1.910084,-2.46886 0,-0.78678 -1.910084,-2.55026 -1.910084,-2.55026 z"
       id="rect2303-5-0-2-9"
       inkscape:connector-curvature="0"
       sodipodi:nodetypes="ccsccsc" />
    <path
       style="fill:#ffe680;stroke:#000000;stroke-width:0.17828062;stroke-miterlimit:4;stroke-dasharray:none;stroke-opacity:1"
       d="m 100.60376,77.715607 0.90465,0.0739 c 0,0 1.5381,1.95518 1.89518,3.09948 0.40223,1.28898 0.53882,3.80833 0.53882,3.80833 l -1.0607,0.31811 c 0,0 0.42728,-2.64531 0.0251,-3.93429 -0.35709,-1.1443 -2.30301,-3.36554 -2.30301,-3.36554 z"
       id="rect2303-5-0-9-40-1"
       inkscape:connector-curvature="0"
       sodipodi:nodetypes="ccsccsc" />
    <path
       style="fill:#2b1100;stroke:#000000;stroke-width:0.00922501;stroke-miterlimit:4;stroke-dasharray:none;stroke-opacity:1"
       d="m 98.524066,88.114417 c 0,0 0.993889,0.24862 1.502994,0.24965 0.52183,6.08e-4 1.54178,-0.24965 1.54178,-0.24965 v 0.34773 c 0,0 -1.01995,0.2507 -1.54178,0.24965 -0.509105,-6.09e-4 -1.502994,-0.24965 -1.502994,-0.24965 z"
       id="rect4272"
       inkscape:connector-curvature="0"
       sodipodi:nodetypes="caccacc" />
    <path
       style="fill:#2b1100;stroke:#000000;stroke-width:0.00862489;stroke-miterlimit:4;stroke-dasharray:none;stroke-opacity:1"
       d="m 106.52442,87.532847 c 0,0 0.84645,0.0688 1.24162,-0.0288 0.40506,-0.10003 1.1199,-0.56104 1.1199,-0.56104 l 0.10568,0.3655 c 0,0 -0.71485,0.46108 -1.1199,0.56104 -0.39519,0.0975 -1.24161,0.0288 -1.24161,0.0288 z"
       id="rect4272-9"
       inkscape:connector-curvature="0"
       sodipodi:nodetypes="caccacc" />
  </g>
</svg>
