<?xml version="1.0" encoding="utf-8"?><svg version="1.1" id="Layer_1" xmlns="http://www.w3.org/2000/svg" xmlns:xlink="http://www.w3.org/1999/xlink" x="0px" y="0px" viewBox="0 0 122.88 112.424" enable-background="new 0 0 122.88 112.424" xml:space="preserve"><g><path fill="#692E19" d="M62.095,87.689c-4.279-3.094-8.002-7.108-10.789-11.938c-3.477-6.023-5.554-12.716-6.441-19.584 c-0.955-7.388-0.534-14.975,1.002-22.144c0.595-2.775,1.341-5.368,2.235-7.779c0.897-2.419,1.967-4.701,3.204-6.845 c2.787-4.829,6.51-8.844,10.789-11.938c5.817-4.208,12.678-6.739,19.623-7.329c6.97-0.592,14.044,0.774,20.264,4.364 c3.962,2.286,7.56,5.46,10.544,9.585c6.902,9.545,10.354,21.529,10.354,33.494s-3.452,23.948-10.354,33.494 c-2.984,4.126-6.582,7.299-10.544,9.586c-6.22,3.589-13.293,4.955-20.264,4.363C74.772,94.43,67.913,91.897,62.095,87.689 L62.095,87.689z"/><path fill-rule="evenodd" clip-rule="evenodd" fill="#84462D" d="M53.087,74.729c12.047,20.877,42.839,25.778,57.77,5.133 c13.281-18.364,13.28-46.206,0-64.57C95.925-5.354,65.135-0.453,53.087,20.424c-2.323,4.025-4.063,8.695-5.206,14.027 C45.01,47.846,46.147,62.702,53.087,74.729L53.087,74.729z"/><path fill-rule="evenodd" clip-rule="evenodd" fill="#692E19" d="M66.51,15.879c-9.189,20.138-3.962,49.404,2.757,66.305 C55.631,70.779,52.083,28.241,66.51,15.879L66.51,15.879z M86.963,15.039c10.81,19.317,8,48.914,2.689,66.308 C102.307,68.863,102.356,26.176,86.963,15.039L86.963,15.039z M99.753,14.514c10.81,19.317,8,48.913,2.689,66.308 C115.097,68.338,115.146,25.651,99.753,14.514L99.753,14.514z M79.3,15.354c-9.189,20.138-3.963,49.404,2.757,66.305 C68.421,70.255,64.873,27.715,79.3,15.354L79.3,15.354z"/><path fill-rule="evenodd" clip-rule="evenodd" fill="#692E19" d="M83.7,2.95c1.965,0,3.558,1.468,3.558,3.28 c0,1.812-1.593,3.28-3.558,3.28s-3.558-1.469-3.558-3.28C80.142,4.418,81.735,2.95,83.7,2.95L83.7,2.95z"/><path fill-rule="evenodd" clip-rule="evenodd" fill="#692E19" d="M91.337,6.603c1.376,0,2.491,1.028,2.491,2.297 s-1.115,2.296-2.491,2.296s-2.491-1.028-2.491-2.296S89.961,6.603,91.337,6.603L91.337,6.603z"/><path fill-rule="evenodd" clip-rule="evenodd" fill="#692E19" d="M75.757,6.603c1.376,0,2.491,1.028,2.491,2.297 s-1.115,2.296-2.491,2.296s-2.492-1.028-2.492-2.296S74.381,6.603,75.757,6.603L75.757,6.603z"/><path fill="#692E19" d="M18.604,47.067c9.899-8.614,22.269-14.298,32.903-13.464c5.167,0.405,8.705,1.821,11.577,4.198 c2.766,2.289,4.719,5.33,6.882,9.174c3.031,5.387,5.275,10.442,6.798,15.192c1.543,4.813,2.337,9.313,2.451,13.526 c0.341,12.6-5.729,23.692-16.362,30.485c-5.993,3.829-13.12,6.031-20.443,6.229c-5.399,0.146-10.905-0.795-16.141-2.973 c-3.521-1.464-7-3.479-10.433-6.056c-3.396-2.548-6.722-5.621-9.973-9.229c-2.424-2.688-3.983-4.574-4.928-6.973 c-0.951-2.415-1.131-5.012-0.742-9.008C1.264,67.161,8.779,55.616,18.604,47.067L18.604,47.067z"/><path fill-rule="evenodd" clip-rule="evenodd" fill="#84462D" d="M51.282,36.457C31.653,34.917,5.034,57.91,3.035,78.439 c-0.685,7.033,0.535,8.896,4.953,13.799c6.286,6.974,12.748,11.8,19.376,14.558c22.256,9.257,49.687-5.564,48.997-31.034 c-0.214-7.872-3.002-16.922-8.891-27.387C63.455,41.24,60.32,37.167,51.282,36.457L51.282,36.457z"/><path fill-rule="evenodd" clip-rule="evenodd" fill="#672F1B" d="M51.282,36.457C31.653,34.917,5.034,57.91,3.035,78.439 c-0.685,7.033,0.535,8.896,4.953,13.799c1.806,1.219,3.498,2.101,5.088,2.683c8.417,3.078,8.513-1.654,14.909-4.415 c7.316-3.157,9.518,0.688,20.112-7.089c3.59-2.636,7.075-5.895,9.975-9.333c7.691-9.122,9.271-16.862,7.649-28.678 C62.396,40.107,58.981,37.062,51.282,36.457L51.282,36.457z"/><path fill-rule="evenodd" clip-rule="evenodd" fill="#FBFBFB" d="M11.856,75.938c0.441-2.879,1.322-5.458,2.493-7.831 c3.764-7.628,17.151-22.427,30.197-24.82c9.117-1.673,14.695,2.132,14.086,11.964c-0.29,4.674-1.941,9.644-3.969,12.71 c-1.761,2.662-4.104,5.156-6.956,7.5c-3.324,2.733-5.245,4.136-7.736,5.09c-4.171,1.598-8.325,1.001-11.822,2.619 c-3.783,1.751-6.262,4.973-9.389,5.044C12.059,88.365,11.076,81.037,11.856,75.938L11.856,75.938z"/><path fill-rule="evenodd" clip-rule="evenodd" fill="#EAF0F4" d="M58.436,52.635c0.047,0.803,0.044,1.657-0.013,2.563 c-0.289,4.674-1.94,9.644-3.969,12.71c-1.76,2.662-4.104,5.155-6.955,7.5c-3.325,2.733-5.246,4.136-7.737,5.09 c-4.171,1.598-8.325,1.001-11.822,2.619c-3.085,1.428-5.302,3.833-7.711,4.711c0.029-0.767,0.104-1.516,0.212-2.223 c0.441-2.88,1.322-5.458,2.493-7.831c3.764-7.628,17.15-22.427,30.196-24.82C55.068,52.598,56.844,52.49,58.436,52.635 L58.436,52.635z"/><path fill-rule="evenodd" clip-rule="evenodd" fill="#692E19" d="M21.819,92.661l2.659-1.006 c2.261,3.832,12.424,10.539,16.022,12.507C35.546,104.902,24.576,98.095,21.819,92.661L21.819,92.661z M57.668,71.319l-1.82,2.183 c2.88,3.391,5.89,15.19,6.572,19.235C64.742,88.298,61.9,75.703,57.668,71.319L57.668,71.319z M64.858,60.457l-1.334,3.027 c2.881,3.392,5.891,15.189,6.572,19.235C72.417,78.28,69.089,64.842,64.858,60.457L64.858,60.457z M33.797,88.688l2.659-1.005 c2.261,3.831,12.423,10.538,16.022,12.507C47.525,100.93,36.554,94.121,33.797,88.688L33.797,88.688z"/></g></svg>