<svg id="svg" version="1.1" xmlns="http://www.w3.org/2000/svg" xmlns:xlink="http://www.w3.org/1999/xlink" width="400" height="327.27272727272725" viewBox="0, 0, 400,327.27272727272725"><g id="svgg"><path id="path0" d="M133.971 20.629 C 133.571 20.789,133.161 21.259,133.060 21.672 C 132.634 23.415,133.048 100.119,133.486 100.557 C 134.173 101.244,380.658 101.347,381.985 100.661 C 383.682 99.783,383.676 99.925,383.569 59.260 L 383.470 21.794 382.357 21.044 L 381.245 20.295 257.971 20.315 C 186.417 20.327,134.392 20.459,133.971 20.629 M381.036 21.615 C 381.959 22.109,382.038 97.077,381.118 99.007 L 380.566 100.164 258.532 100.164 L 136.498 100.164 135.188 98.854 L 133.879 97.545 133.879 59.785 L 133.879 22.026 134.943 21.685 C 136.429 21.208,380.147 21.139,381.036 21.615 M36.579 133.411 L 35.679 133.900 35.679 171.524 L 35.679 209.148 36.645 209.648 C 37.931 210.313,113.184 210.417,113.846 209.755 C 114.416 209.184,114.416 133.860,113.846 133.290 C 113.193 132.637,37.788 132.756,36.579 133.411 M135.434 133.353 C 134.545 134.028,134.545 209.017,135.434 209.692 C 136.361 210.395,310.602 210.352,311.964 209.648 L 312.930 209.148 312.930 171.522 L 312.930 133.896 311.964 133.396 C 310.602 132.692,136.361 132.649,135.434 133.353 M135.696 244.303 L 134.861 245.397 134.861 283.203 L 134.861 321.008 135.695 321.388 C 136.998 321.981,211.736 321.908,212.520 321.312 C 213.483 320.581,213.398 246.398,212.432 244.504 L 211.771 243.208 174.151 243.208 L 136.531 243.208 135.696 244.303 " stroke="none" fill="#6bd3e3" fill-rule="evenodd"></path><path id="path1" d="M134.943 21.685 L 133.879 22.026 133.879 59.785 L 133.879 97.545 135.188 98.854 L 136.498 100.164 258.532 100.164 L 380.566 100.164 381.118 99.007 C 382.038 97.077,381.959 22.109,381.036 21.615 C 380.147 21.139,136.429 21.208,134.943 21.685 " stroke="none" fill="#04a4c4" fill-rule="evenodd"></path><path id="path2" d="M0.000 163.666 L 0.000 327.332 200.000 327.332 L 400.000 327.332 400.000 163.666 L 400.000 0.000 200.000 0.000 L 0.000 0.000 0.000 163.666 M382.614 19.228 C 385.516 20.696,385.300 17.183,385.197 61.140 C 385.100 102.913,385.176 101.152,383.429 101.816 C 382.915 102.011,336.032 102.128,257.804 102.128 L 132.998 102.128 132.375 101.439 C 131.769 100.769,131.751 99.625,131.751 60.707 L 131.751 20.665 132.696 19.679 C 133.999 18.319,122.927 18.434,258.097 18.380 L 380.842 18.331 382.614 19.228 M115.134 130.428 C 117.312 131.745,117.185 129.198,117.185 171.522 C 117.185 213.846,117.312 211.299,115.134 212.617 C 114.005 213.299,39.031 213.654,35.900 212.992 C 33.238 212.429,33.402 215.162,33.402 171.522 C 33.402 127.858,33.240 130.553,35.900 130.107 C 36.589 129.992,37.300 129.846,37.480 129.783 C 39.093 129.222,114.171 129.845,115.134 130.428 M311.913 129.893 C 312.959 130.054,313.540 130.367,314.041 131.039 L 314.730 131.963 314.730 171.522 L 314.730 211.081 314.041 212.005 C 313.540 212.677,312.959 212.990,311.913 213.151 C 309.194 213.569,136.486 213.407,134.861 212.985 C 132.033 212.250,132.243 215.584,132.243 171.522 C 132.243 127.460,132.033 130.794,134.861 130.059 C 136.486 129.637,309.194 129.475,311.913 129.893 M214.655 241.899 C 216.017 242.798,216.036 243.353,216.037 283.016 C 216.040 326.872,216.368 322.554,212.954 323.547 C 210.547 324.246,137.695 324.302,135.054 323.607 C 131.956 322.790,132.242 326.975,132.242 282.478 C 132.242 240.449,132.174 242.369,133.682 241.709 C 135.278 241.010,213.588 241.193,214.655 241.899 " stroke="none" fill="#fcfcfc" fill-rule="evenodd"></path><path id="path3" d="M135.025 19.854 C 134.664 19.930,134.057 20.059,133.675 20.140 C 132.217 20.447,132.228 20.112,132.319 61.120 L 132.406 100.146 133.151 100.891 L 133.897 101.637 257.210 101.732 C 385.074 101.831,382.231 101.860,383.498 100.460 C 384.219 99.664,384.680 22.620,383.972 21.298 C 383.027 19.533,391.108 19.637,258.125 19.678 C 190.780 19.699,135.385 19.778,135.025 19.854 M382.357 21.044 L 383.470 21.794 383.569 59.260 C 383.676 99.925,383.682 99.783,381.985 100.661 C 380.658 101.347,134.173 101.244,133.486 100.557 C 133.048 100.119,132.634 23.415,133.060 21.672 C 133.390 20.322,132.031 20.337,257.971 20.315 L 381.245 20.295 382.357 21.044 M36.114 131.737 C 35.543 131.986,34.917 132.486,34.723 132.849 C 34.225 133.779,34.226 209.266,34.724 210.197 C 35.594 211.823,34.588 211.784,75.472 211.784 L 113.650 211.784 114.763 210.671 L 115.876 209.558 115.876 171.522 L 115.876 133.486 114.763 132.373 L 113.650 131.260 75.401 131.273 C 43.628 131.284,36.976 131.362,36.114 131.737 M134.968 131.737 C 133.149 132.529,133.224 130.803,133.224 171.522 C 133.224 212.433,133.137 210.525,135.040 211.321 C 136.492 211.927,310.498 212.027,312.233 211.422 C 313.970 210.817,313.912 212.208,313.912 171.522 C 313.912 130.836,313.970 132.228,312.233 131.622 C 310.528 131.028,136.339 131.141,134.968 131.737 M113.846 133.290 C 114.416 133.860,114.416 209.184,113.846 209.755 C 113.184 210.417,37.931 210.313,36.645 209.648 L 35.679 209.148 35.679 171.524 L 35.679 133.900 36.579 133.411 C 37.788 132.756,113.193 132.637,113.846 133.290 M311.964 133.396 L 312.930 133.896 312.930 171.522 L 312.930 209.148 311.964 209.648 C 310.602 210.352,136.361 210.395,135.434 209.692 C 134.894 209.282,134.861 207.076,134.861 171.522 C 134.861 135.968,134.894 133.762,135.434 133.353 C 136.361 132.649,310.602 132.692,311.964 133.396 M134.548 242.642 C 133.275 243.287,133.291 242.772,133.257 283.053 L 133.224 321.425 134.110 322.006 C 134.943 322.552,137.281 322.591,173.661 322.673 L 212.326 322.760 213.446 322.005 L 214.566 321.251 214.659 283.620 C 214.758 243.604,214.774 244.204,213.577 243.008 L 212.796 242.226 174.074 242.231 C 143.866 242.234,135.175 242.325,134.548 242.642 M212.432 244.504 C 213.398 246.398,213.483 320.581,212.520 321.312 C 211.736 321.908,136.998 321.981,135.695 321.388 L 134.861 321.008 134.861 283.203 L 134.861 245.397 135.696 244.303 L 136.531 243.208 174.151 243.208 L 211.771 243.208 212.432 244.504 " stroke="none" fill="#aae7ef" fill-rule="evenodd"></path><path id="path4" d="M134.496 18.561 C 134.026 18.633,133.215 19.137,132.696 19.679 L 131.751 20.665 131.751 60.707 C 131.751 99.625,131.769 100.769,132.375 101.439 L 132.998 102.128 257.804 102.128 C 336.032 102.128,382.915 102.011,383.429 101.816 C 385.176 101.152,385.100 102.913,385.197 61.140 C 385.300 17.183,385.516 20.696,382.614 19.228 L 380.842 18.331 258.097 18.380 C 190.587 18.407,134.967 18.488,134.496 18.561 M382.108 20.164 C 382.954 20.452,383.792 20.962,383.972 21.298 C 384.680 22.620,384.219 99.664,383.498 100.460 C 382.231 101.860,385.074 101.831,257.210 101.732 L 133.897 101.637 133.151 100.891 L 132.406 100.146 132.319 61.120 C 132.228 20.112,132.217 20.447,133.675 20.140 C 134.057 20.059,134.664 19.930,135.025 19.854 C 137.340 19.365,380.657 19.669,382.108 20.164 M37.480 129.783 C 37.300 129.846,36.589 129.992,35.900 130.107 C 33.240 130.553,33.402 127.858,33.402 171.522 C 33.402 215.162,33.238 212.429,35.900 212.992 C 39.031 213.654,114.005 213.299,115.134 212.617 C 117.312 211.299,117.185 213.846,117.185 171.522 C 117.185 129.198,117.312 131.745,115.134 130.428 C 114.171 129.845,39.093 129.222,37.480 129.783 M134.861 130.059 C 132.033 130.794,132.243 127.460,132.243 171.522 C 132.243 215.584,132.033 212.250,134.861 212.985 C 136.486 213.407,309.194 213.569,311.913 213.151 C 312.959 212.990,313.540 212.677,314.041 212.005 L 314.730 211.081 314.730 171.522 L 314.730 131.963 314.041 131.039 C 313.540 130.367,312.959 130.054,311.913 129.893 C 309.194 129.475,136.486 129.637,134.861 130.059 M114.763 132.373 L 115.876 133.486 115.876 171.522 L 115.876 209.558 114.763 210.671 L 113.650 211.784 75.472 211.784 C 34.588 211.784,35.594 211.823,34.724 210.197 C 34.226 209.266,34.225 133.779,34.723 132.849 C 35.580 131.247,34.552 131.287,75.401 131.273 L 113.650 131.260 114.763 132.373 M312.233 131.622 C 313.970 132.228,313.912 130.836,313.912 171.522 C 313.912 212.208,313.970 210.817,312.233 211.422 C 310.498 212.027,136.492 211.927,135.040 211.321 C 133.137 210.525,133.224 212.433,133.224 171.522 C 133.224 130.803,133.149 132.529,134.968 131.737 C 136.339 131.141,310.528 131.028,312.233 131.622 M133.682 241.709 C 132.174 242.369,132.242 240.449,132.242 282.478 C 132.242 326.975,131.956 322.790,135.054 323.607 C 137.695 324.302,210.547 324.246,212.954 323.547 C 216.368 322.554,216.040 326.872,216.037 283.016 C 216.036 243.353,216.017 242.798,214.655 241.899 C 213.588 241.193,135.278 241.010,133.682 241.709 M213.577 243.008 C 214.774 244.204,214.758 243.604,214.659 283.620 L 214.566 321.251 213.446 322.005 L 212.326 322.760 173.661 322.673 C 137.281 322.591,134.943 322.552,134.110 322.006 L 133.224 321.425 133.257 283.053 C 133.275 261.948,133.392 244.314,133.516 243.865 C 133.985 242.181,132.633 242.236,174.074 242.231 L 212.796 242.226 213.577 243.008 " stroke="none" fill="#c4ecf4" fill-rule="evenodd"></path></g></svg>