<?xml version="1.0" encoding="UTF-8" standalone="no"?>
<svg
   xmlns:dc="http://purl.org/dc/elements/1.1/"
   xmlns:cc="http://creativecommons.org/ns#"
   xmlns:rdf="http://www.w3.org/1999/02/22-rdf-syntax-ns#"
   xmlns:svg="http://www.w3.org/2000/svg"
   xmlns="http://www.w3.org/2000/svg"
   xmlns:sodipodi="http://sodipodi.sourceforge.net/DTD/sodipodi-0.dtd"
   xmlns:inkscape="http://www.inkscape.org/namespaces/inkscape"
   version="1.1"
   id="Layer_1"
   x="0px"
   y="0px"
   viewBox="0 0 40 40"
   style="enable-background:new 0 0 40 40;"
   xml:space="preserve"
   sodipodi:docname="money_bag2.svg"
   inkscape:version="1.0.1 (0767f8302a, 2020-10-17)"><metadata
   id="metadata172"><rdf:RDF><cc:Work
       rdf:about=""><dc:format>image/svg+xml</dc:format><dc:type
         rdf:resource="http://purl.org/dc/dcmitype/StillImage" /><dc:title></dc:title></cc:Work></rdf:RDF></metadata><defs
   id="defs170" /><sodipodi:namedview
   pagecolor="#ffffff"
   bordercolor="#666666"
   borderopacity="1"
   objecttolerance="10"
   gridtolerance="10"
   guidetolerance="10"
   inkscape:pageopacity="0"
   inkscape:pageshadow="2"
   inkscape:window-width="1848"
   inkscape:window-height="1016"
   id="namedview168"
   showgrid="false"
   inkscape:zoom="14.025"
   inkscape:cx="20"
   inkscape:cy="20"
   inkscape:window-x="72"
   inkscape:window-y="27"
   inkscape:window-maximized="1"
   inkscape:current-layer="Layer_1" />
<g
   id="g143">
	<path
   style="fill:#F5CE85;"
   d="M20,38.5c-11.421,0-18.5-1.505-18.5-9C1.5,21.569,13.084,8.286,20,8.286S38.5,21.569,38.5,29.5   C38.5,36.995,31.421,38.5,20,38.5z"
   id="path139" />
	<path
   style="fill:#967A44;"
   d="M20,8.786c6.561,0,18,13.164,18,20.714c0,5.248-3.011,8.5-18,8.5C8.887,38,2,36.578,2,29.5   C2,21.95,13.439,8.786,20,8.786 M20,7.786c-7.156,0-19,13.469-19,21.714S9.294,39,20,39s19-1.255,19-9.5S27.156,7.786,20,7.786   L20,7.786z"
   id="path141" />
</g>
<g
   id="g149">
	<path
   style="fill:#F5CE85;"
   d="M14.684,9.5c-0.545-0.266-3.346-1.732-3.655-3.907C12.298,5.312,16.299,4.5,20,4.5   s7.702,0.812,8.972,1.093c-0.31,2.175-3.11,3.641-3.655,3.907H14.684z"
   id="path145" />
	<path
   style="fill:#967A44;"
   d="M20,5c3.257,0,6.757,0.639,8.364,0.974C27.865,7.41,26.113,8.549,25.204,9H14.796   c-0.91-0.452-2.662-1.591-3.161-3.027C13.241,5.639,16.738,5,20,5 M20,4c-4.565,0-9.5,1.2-9.5,1.2c0,2.985,4.071,4.8,4.071,4.8   h10.857c0,0,4.071-1.815,4.071-4.8C29.5,5.2,24.565,4,20,4L20,4z"
   id="path147" />
</g>
<g
   id="g155">
	<path
   style="fill:#F5CE85;"
   d="M17.588,9.5L13.9,2.516C14.735,2.169,16.764,1.5,20,1.5s5.265,0.669,6.1,1.016L22.412,9.5H17.588z"
   id="path151" />
	<path
   style="fill:#967A44;"
   d="M20,2c2.615,0,4.41,0.446,5.393,0.783L22.111,9h-4.223l-3.281-6.217C15.592,2.446,17.386,2,20,2    M20,1c-4.565,0-6.786,1.286-6.786,1.286L17.286,10h5.429l4.071-7.714C26.786,2.286,24.565,1,20,1L20,1z"
   id="path153" />
</g>
<path
   style="fill:none;stroke:#66798F;stroke-linecap:round;stroke-linejoin:round;stroke-miterlimit:10;"
   d="M25.786,9.5H15.691  c0,0-3.155,3.009-3.155,11.536"
   id="path157" />
<path
   style="fill:none;stroke:#66798F;stroke-linecap:round;stroke-linejoin:round;stroke-miterlimit:10;"
   d="M15.718,9.5  c0,0-4.469,2.195-6.254,8.821"
   id="path159" />



<path
   style="fill:#ffcc00;stroke-width:0.0713012"
   d="M 15.97148,37.893035 C 9.3173918,37.581609 5.4825145,36.415174 3.5462712,34.113723 2.3140591,32.649094 1.8037518,30.504357 2.1433321,28.217401 2.690988,24.529127 5.5238017,19.578381 9.5703223,15.237675 c 0.4127978,-0.442808 0.7627687,-0.792879 0.7777137,-0.777934 0.01494,0.01495 -0.136229,0.37358 -0.33594,0.796968 -0.420799,0.892094 -1.0617857,2.749589 -1.0629749,3.080362 -0.0015,0.417304 0.5307648,0.670326 0.8358408,0.397332 0.079792,-0.0714 0.2834741,-0.566758 0.4761501,-1.158006 0.361055,-1.107932 0.985201,-2.484503 1.519421,-3.351125 0.425426,-0.690134 1.224748,-1.758736 1.520517,-2.032759 0.26931,-0.24951 0.272266,-0.272411 -0.10125,0.784314 -0.684371,1.936177 -1.074621,4.251023 -1.16319,6.899704 -0.04455,1.332362 -0.04402,1.33898 0.121482,1.515152 0.216819,0.230793 0.52103,0.231577 0.750674,0.0019 0.164301,-0.164299 0.175013,-0.222346 0.175013,-0.948314 0,-2.983115 0.662498,-6.347179 1.667989,-8.469791 0.367675,-0.776169 1.005867,-1.791017 1.187378,-1.888159 0.07991,-0.04277 1.651163,-0.06953 4.082761,-0.06953 h 3.952852 l 0.793369,0.481284 c 4.198385,2.546877 8.889778,7.806449 11.358096,12.733684 1.362056,2.718927 1.912039,4.77411 1.815726,6.785032 -0.111604,2.330184 -0.851406,3.869033 -2.431894,5.058544 -2.022404,1.522104 -5.273364,2.369539 -10.554619,2.751292 -1.419511,0.102609 -7.277572,0.145237 -8.983957,0.06537 z m 5.026737,-4.874892 V 31.98994 l 0.23173,-0.04815 c 0.404761,-0.0841 1.222482,-0.513317 1.583724,-0.831295 1.38352,-1.217823 1.601008,-3.416726 0.4836,-4.889413 -0.386747,-0.509712 -0.556032,-0.639191 -2.798162,-2.140191 -1.350174,-0.903877 -2.084644,-1.440003 -2.188708,-1.597645 -0.225503,-0.341605 -0.314681,-0.810512 -0.228135,-1.199564 0.200522,-0.901419 1.024073,-1.364486 2.230836,-1.254359 0.616561,0.05627 0.900099,0.189869 1.252435,0.590144 0.278456,0.316343 0.430898,0.754966 0.430898,1.239828 v 0.212351 l 1.016043,-0.01978 1.016042,-0.01978 -0.02035,-0.53476 c -0.01119,-0.294117 -0.07012,-0.71123 -0.130958,-0.926916 -0.32453,-1.150575 -1.299665,-2.121663 -2.469016,-2.458771 L 20.998217,17.993446 V 16.964638 15.935829 H 20 19.001783 v 1.026923 1.026924 l -0.481284,0.147474 c -0.873959,0.267798 -1.623214,0.88027 -2.104431,1.720248 -0.567418,0.990445 -0.567418,2.503315 0,3.493761 0.421608,0.73593 0.696203,0.96866 2.791361,2.365789 1.122188,0.748317 2.131516,1.444604 2.242951,1.547304 0.900814,0.830208 0.508164,2.330149 -0.694881,2.654472 -0.160622,0.0433 -0.582397,0.06607 -0.937278,0.05059 -0.546101,-0.02381 -0.696976,-0.05846 -0.981989,-0.225484 -0.455779,-0.2671 -0.68798,-0.63877 -0.785332,-1.257032 L 17.972,27.98574 h -1.024171 -1.02417 l 0.05072,0.552584 c 0.0996,1.085168 0.508478,1.952954 1.211951,2.572176 0.361242,0.317978 1.178963,0.747198 1.583724,0.831295 l 0.23173,0.04815 v 1.028203 1.028203 H 20 20.998217 Z"
   id="path174" /><path
   style="fill:#ffcc00;stroke-width:0.0713012"
   d="M 15.115865,37.822598 C 8.9429404,37.403206 5.3671629,36.240816 3.5634841,34.067226 3.0792009,33.483624 2.526761,32.379218 2.3047318,31.550802 2.1617253,31.017229 2.1424188,30.778447 2.1433116,29.554367 c 8.716e-4,-1.194934 0.023699,-1.485588 0.1623941,-2.067736 0.8495595,-3.565866 3.2725792,-7.730766 6.7791052,-11.652524 0.7696604,-0.860802 1.1927781,-1.277797 1.1267001,-1.110399 -0.02322,0.05882 -0.171475,0.401756 -0.3294568,0.762073 -0.4135095,0.94311 -0.9337476,2.516824 -0.9337476,2.824573 0,0.343071 0.2008741,0.548826 0.5358075,0.548826 0.3212806,0 0.4203893,-0.157832 0.8216669,-1.308515 0.37038,-1.062085 1.007842,-2.479187 1.415994,-3.147813 0.545419,-0.89349 1.613639,-2.303327 1.688493,-2.228472 0.01304,0.01304 -0.104048,0.404967 -0.260198,0.870946 -0.712646,2.12665 -1.0364,4.07039 -1.112101,6.67678 -0.04386,1.510151 -0.04174,1.543285 0.10838,1.693405 0.207171,0.207171 0.580812,0.203647 0.775174,-0.0073 0.134486,-0.14597 0.154802,-0.301791 0.225437,-1.729056 0.191094,-3.861322 1.02642,-6.990834 2.417018,-9.055258 l 0.3362,-0.499109 1.889483,-0.0442 c 1.039216,-0.02431 2.844375,-0.04838 4.011466,-0.05348 l 2.121983,-0.0093 0.733684,0.453504 c 5.324549,3.291203 10.770876,10.027467 12.632887,15.624928 0.507447,1.525456 0.572123,1.933221 0.565453,3.565062 -0.0053,1.295077 -0.02262,1.488682 -0.188713,2.108366 -0.4951,1.84722 -1.565128,3.098283 -3.467742,4.054443 -1.923783,0.966797 -4.298295,1.511354 -8.280675,1.899042 -1.373213,0.133684 -9.233096,0.206029 -10.802139,0.09943 z m 5.89822,-4.784515 0.01978,-1.008263 0.285205,-0.0853 c 0.836185,-0.250102 1.623418,-0.803613 2.057174,-1.44642 0.781694,-1.158434 0.870981,-2.522899 0.248387,-3.795779 -0.332408,-0.6796 -0.815463,-1.104308 -2.735905,-2.405439 -2.605947,-1.765572 -2.705279,-1.85762 -2.791652,-2.586907 -0.07709,-0.650877 0.364025,-1.290642 1.058933,-1.535819 0.341002,-0.120313 1.260068,-0.135011 1.651176,-0.02641 0.586085,0.162747 1.062947,0.81127 1.149635,1.563485 l 0.04519,0.392157 1.040577,-0.0216 1.040577,-0.0216 -0.04948,-0.609863 c -0.09175,-1.130746 -0.419468,-1.838989 -1.173329,-2.535711 -0.429688,-0.397118 -0.985111,-0.706065 -1.532624,-0.852503 l -0.329516,-0.08813 v -1.01908 -1.01908 h -0.996259 -0.99626 l -0.01978,1.009331 -0.01978,1.009332 -0.356506,0.121166 c -0.879839,0.299031 -1.481145,0.732905 -2.008454,1.449203 -0.801876,1.089271 -0.84378,2.873225 -0.0949,4.040247 0.346149,0.539427 0.75352,0.866705 2.892075,2.323467 1.079604,0.735415 2.056351,1.443536 2.170551,1.573603 0.598032,0.68112 0.3443,1.844091 -0.499375,2.28886 -0.293513,0.154735 -0.391204,0.167233 -1.146367,0.146667 -0.764975,-0.02083 -0.847531,-0.03707 -1.125778,-0.221414 -0.442385,-0.293088 -0.618458,-0.625142 -0.754642,-1.423172 L 17.997103,27.98574 H 16.944687 15.89227 l 0.06174,0.58545 c 0.155467,1.474232 0.810666,2.46184 2.049556,3.08938 0.215686,0.109253 0.520499,0.237028 0.677362,0.283946 l 0.285205,0.0853 0.01978,1.008263 0.01978,1.008263 H 20 20.994302 Z"
   id="path176" /><path
   style="fill:#ffcc00;stroke-width:0.0713012"
   d="m 16.31016,5.9300078 c -0.872549,-1.658438 -1.586452,-3.0484609 -1.586452,-3.0889397 0,-0.081664 0.799002,-0.3110318 1.675579,-0.481005 2.025443,-0.3927452 4.704205,-0.420065 6.809269,-0.069446 0.752883,0.1254001 2.008982,0.4355203 2.074051,0.5120657 0.02308,0.027152 -0.282603,0.6589923 -0.679298,1.4040903 -0.396694,0.7450981 -1.121462,2.116114 -1.610592,3.0467022 L 22.103387,8.9454543 20,8.9454021 17.896613,8.9453499 Z"
   id="path178" /><path
   style="fill:#ffcc00;stroke-width:0.0713012"
   d="M 14.309523,8.6809269 C 13.578153,8.2365229 13.026176,7.8046521 12.580167,7.3278667 12.179758,6.899828 11.73119,6.2269276 11.729724,6.05211 c -3.68e-4,-0.043889 0.103609,-0.098326 0.23106,-0.1209721 0.843066,-0.1498001 2.781944,-0.4765924 2.827651,-0.4765924 0.04941,0 1.860406,3.3644741 1.860406,3.4562638 0,0.020623 -0.427338,0.037497 -0.949641,0.037497 h -0.949642 z"
   id="path180" /><path
   style="fill:#ff7f2a;stroke-width:0.0713012"
   d="m 23.351159,8.9127071 c 0,-0.01958 0.407902,-0.8073418 0.90645,-1.7505823 l 0.90645,-1.7149829 0.287846,0.04389 c 1.371063,0.2090557 2.818926,0.4982587 2.818371,0.5629547 -3.68e-4,0.042857 -0.101417,0.2543915 -0.224554,0.4700778 -0.290101,0.5081412 -1.164578,1.3772739 -1.842513,1.8312515 -0.888914,0.5952586 -0.881565,0.5929909 -1.921593,0.5929909 -0.511752,0 -0.930457,-0.01602 -0.930457,-0.0356 z"
   id="path182" /><path
   style="fill:#ff7f2a;stroke-width:0.0713012"
   d="M 14.060154,8.4811968 C 13.675591,8.2214852 13.156694,7.8179229 12.907048,7.5843917 12.397058,7.1073212 11.76185,6.2281445 11.819192,6.0787148 c 0.03901,-0.1016484 2.164094,-0.5013437 2.721672,-0.5119032 0.270233,-0.00512 0.289574,0.010513 0.522809,0.4224932 0.522603,0.9231115 1.522566,2.831467 1.497042,2.8569917 -0.01484,0.014839 -0.426215,0.045008 -0.914168,0.067041 l -0.887189,0.040062 z"
   id="path184" /><path
   style="fill:#ff00ff;stroke-width:0.0713012"
   d="m 12.228164,21.354724 c -0.125776,-0.125776 -0.142603,-0.237671 -0.142603,-0.948315 0,-2.913101 0.647739,-6.341145 1.609563,-8.518326 l 0.180502,-0.408582 -0.295244,0.285205 c -0.409062,0.395153 -1.073062,1.227008 -1.560353,1.9548 -0.807226,1.20563 -1.40783,2.479328 -1.895862,4.020547 -0.137153,0.433132 -0.3023745,0.846082 -0.3671592,0.917669 -0.2462965,0.272155 -0.7374,0.0493 -0.7374,-0.33462 0,-0.09876 0.1163155,-0.539941 0.2584789,-0.980392 0.534972,-1.657454 1.3126753,-3.223825 2.2915633,-4.615437 0.678345,-0.964353 2.351793,-2.622448 3.26101,-3.2310913 l 0.713012,-0.4773016 5.190406,3.639e-4 5.190408,3.638e-4 0.175011,0.1750122 c 0.213527,0.2135259 0.218698,0.3206298 0.02724,0.5640353 L 25.97896,9.9465241 h -5.048308 -5.048309 l -0.356522,0.5169339 c -1.449552,2.101755 -2.361512,5.535028 -2.491801,9.380933 -0.03852,1.136933 -0.06191,1.328527 -0.180669,1.479501 -0.166292,0.211406 -0.431528,0.224486 -0.625182,0.03083 z"
   id="path188" /><path
   style="fill:#aa0000;stroke-width:0.0713012"
   d="m 12.268908,21.31398 c -0.07027,-0.07027 -0.115025,-0.249714 -0.120037,-0.481283 -0.06549,-3.026094 0.527149,-6.426069 1.535178,-8.80729 0.105311,-0.248772 0.180573,-0.485018 0.167248,-0.524992 -0.03497,-0.104895 -0.779552,0.719658 -1.389948,1.539225 -1.002619,1.346196 -1.617553,2.531352 -2.238506,4.31425 -0.4120054,1.182961 -0.5057087,1.362688 -0.7104576,1.362688 -0.4687067,0 -0.5264291,-0.301196 -0.2350066,-1.226266 0.470593,-1.493817 1.2039032,-3.038886 2.0499532,-4.319206 0.848668,-1.284284 2.416461,-2.87008 3.734284,-3.7771666 l 0.543832,-0.3743316 h 5.143849 5.143849 l 0.155032,0.1650233 c 0.187041,0.199097 0.192104,0.284974 0.0327,0.5548133 L 25.958553,9.9465241 H 20.890172 15.82179 l -0.362671,0.5525849 c -1.447021,2.204753 -2.22996,5.15074 -2.448998,9.21491 -0.08066,1.49668 -0.138224,1.712006 -0.457657,1.712006 -0.09433,0 -0.221937,-0.05042 -0.283561,-0.112045 z"
   id="path192" /><path
   style="fill:#aa0000;stroke-width:0.0713012"
   d="M 15.900178,38.887791 C 7.6596222,38.522935 3.2570404,36.705949 1.6961417,33.025657 0.32398531,29.790381 1.1205839,25.65427 4.0584456,20.760065 c 2.1445146,-3.572563 5.2786425,-7.134173 8.4651694,-9.619786 0.338969,-0.264408 0.638764,-0.480742 0.666213,-0.480742 0.02745,0 -0.166205,0.23262 -0.430341,0.516934 -0.631435,0.679672 -1.36923,1.636252 -1.789073,2.319604 -0.211996,0.345052 -0.685563,0.909252 -1.2698115,1.512838 -3.8185829,3.944959 -6.7760231,8.903488 -7.5272008,12.620321 -0.4686666,2.318966 -0.1128003,4.498355 1.0012615,6.131907 0.3333292,0.488761 1.1800534,1.308193 1.7451229,1.688873 2.0301315,1.367672 5.1015669,2.121499 10.0178249,2.458691 1.727852,0.118509 8.165126,0.118116 9.839573,-5.7e-4 4.403528,-0.312203 7.171959,-0.870666 9.259559,-1.867891 1.168782,-0.558315 1.849347,-1.058706 2.558245,-1.880969 1.269022,-1.471964 1.742604,-3.994416 1.228926,-6.545659 C 36.897807,23.013969 32.569852,16.599169 27.580796,12.431462 26.762175,11.747611 25.473157,10.816551 24.773012,10.403397 l -0.592985,-0.349921 0.870411,-0.02003 0.87041,-0.02003 0.706505,0.500923 c 5.365716,3.80438 10.495364,10.720045 11.902681,16.0469 0.342066,1.29476 0.462116,2.296045 0.410159,3.420939 -0.245429,5.313573 -4.001222,7.985562 -12.273526,8.73177 -2.657,0.239676 -7.509864,0.318035 -10.766489,0.173846 z"
   id="path194" /><path
   style="fill:#ffd5d5;stroke-width:0.0713012"
   d="M 13.768299,9.5177647 C 13.118767,9.1382004 12.183975,8.4007957 11.763878,7.936591 11.082399,7.1835606 10.682641,6.3956757 10.551909,5.5479148 10.505888,5.2494846 10.50616,5.2490419 10.778763,5.1777008 11.172359,5.0746958 13.160867,4.6949939 13.845766,4.5920622 L 14.4295,4.5043345 13.853586,3.4033786 C 13.39505,2.5268101 13.297877,2.2896773 13.376804,2.2398871 13.570796,2.1175104 14.697273,1.7344721 15.364718,1.5639328 16.833965,1.1885245 17.876258,1.079622 20,1.079622 c 1.66249,0 2.112643,0.023661 2.959002,0.1555292 1.15808,0.180437 2.10572,0.411645 2.959702,0.7221171 0.87086,0.3166078 0.844808,0.2878613 0.628746,0.6937541 -0.100605,0.1889965 -0.363153,0.6830669 -0.583441,1.0979342 l -0.400522,0.7543043 0.58724,0.088265 c 0.687823,0.1033824 2.676058,0.4829464 3.070509,0.5861754 0.272604,0.071341 0.272876,0.071784 0.226855,0.370214 -0.193155,1.2525522 -0.922824,2.30685 -2.330357,3.3671298 -0.725753,0.5467023 -0.843224,0.6066887 -0.843224,0.4305939 0,-0.1718966 -0.357051,-0.3973319 -0.629307,-0.3973319 H 25.391634 L 25.815246,8.6940342 C 26.925589,8.0275559 27.844782,7.1383186 28.237033,6.3511737 28.37091,6.0825188 28.392402,5.9835112 28.324807,5.9468282 28.237798,5.8996095 26.063288,5.5039835 25.418895,5.4181327 l -0.320856,-0.042747 -0.926916,1.7849869 -0.926916,1.7849869 -0.516934,0.00148 c -0.284314,8.128e-4 -0.516934,-0.012106 -0.516934,-0.028704 0,-0.016598 0.725221,-1.4003682 1.611603,-3.075044 1.229761,-2.3234366 1.589023,-3.0588203 1.516302,-3.1037646 -0.163702,-0.1011734 -1.192599,-0.3581838 -1.980758,-0.4947778 -2.26444,-0.3924477 -5.13187,-0.3504582 -7.279055,0.1065886 -0.620982,0.1321813 -1.497326,0.3852829 -1.497326,0.4324506 0,0.017846 0.721925,1.398729 1.604278,3.0686286 0.882353,1.6698996 1.604278,3.0496612 1.604278,3.0661375 0,0.016476 -0.23262,0.029042 -0.516934,0.027925 L 16.755793,8.9442431 15.828877,7.1648054 C 15.319073,6.1861161 14.868764,5.3848911 14.82819,5.3843067 c -0.269769,-0.00389 -3.144575,0.5197198 -3.209402,0.5845469 -0.05954,0.059545 0.325506,0.7371734 0.649125,1.1423566 0.669884,0.8387196 2.131743,1.8453559 2.771417,1.9083976 l 0.36174,0.035651 -0.356507,0.2272991 C 14.848485,9.4075722 14.589972,9.5752513 14.470091,9.6551772 L 14.252126,9.800497 Z"
   id="path196" /><path
   style="fill:#aa0000;stroke-width:0.0713012"
   d="M 13.654189,9.3883879 C 12.434692,8.6034232 11.663112,7.873053 11.138516,7.0070749 10.853214,6.536112 10.588235,5.7877461 10.588235,5.4529432 c 0,-0.1833026 0.03108,-0.2071495 0.362598,-0.2782482 0.82595,-0.1771346 3.003705,-0.5758439 3.150797,-0.5768564 0.384392,-0.00265 0.372178,-0.075942 -0.201443,-1.2088312 -0.437532,-0.8641151 -0.530172,-1.0997265 -0.451686,-1.1487679 0.0543,-0.033932 0.494388,-0.1912465 0.977963,-0.3495873 1.739542,-0.5695926 3.324042,-0.7854829 5.764953,-0.7854829 1.512441,0 2.326858,0.073917 3.618896,0.3284532 1.015804,0.200117 2.624367,0.697359 2.751504,0.8505503 0.06305,0.075966 -0.0406,0.3284542 -0.46907,1.142658 -0.399433,0.7590312 -0.525834,1.0600789 -0.46173,1.0996978 0.04855,0.030004 0.269029,0.075798 0.489956,0.1017634 0.34674,0.040752 2.668899,0.4777578 3.130364,0.5891007 0.204719,0.049395 0.209844,0.2760451 0.02013,0.8902683 -0.333305,1.0791155 -1.261084,2.175872 -2.603526,3.0777108 -0.321613,0.2160564 -0.393431,0.2328485 -0.393431,0.091991 0,-0.1304628 -0.283283,-0.3114246 -0.533878,-0.3410432 -0.182787,-0.021604 -0.14811,-0.057197 0.398564,-0.4090859 0.771215,-0.4964229 1.811339,-1.5402257 2.088732,-2.0961202 0.121845,-0.2441773 0.180275,-0.4400227 0.142538,-0.4777604 -0.06013,-0.060131 -1.887067,-0.4140502 -2.85796,-0.5536515 L 25.071358,5.3362702 24.157783,7.101857 c -0.848959,1.6407077 -0.928706,1.7681466 -1.12748,1.8017808 -0.117647,0.019907 -0.33346,0.014036 -0.479584,-0.013045 L 22.28504,8.8413547 23.359173,6.8092692 c 1.455497,-2.7535635 1.988421,-3.8220782 1.988421,-3.9867923 0,-0.1667163 -0.392005,-0.2939645 -1.67558,-0.5439086 C 22.325085,2.0162876 21.164672,1.93575 19.401012,1.9821431 c -1.64826,0.043357 -2.615573,0.1570386 -3.750388,0.4407556 -0.819967,0.2050012 -1.069519,0.2960016 -1.069519,0.390006 0,0.039235 0.705003,1.4116869 1.566673,3.0498932 l 1.566673,2.9785568 -0.229774,0.035651 c -0.126376,0.019608 -0.342075,0.024842 -0.479329,0.011631 C 16.764324,8.8654381 16.740441,8.8349718 16.306695,7.997371 16.05969,7.5203856 15.643931,6.7370766 15.382784,6.2566845 14.926113,5.4166158 14.899132,5.3832442 14.676594,5.3832442 c -0.351672,0 -2.970867,0.4939161 -3.052595,0.5756449 -0.209674,0.2096735 0.886586,1.5879471 1.800867,2.2641412 0.509837,0.3770709 1.279915,0.7965775 1.462258,0.7965775 0.360461,0 0.33085,0.097445 -0.121906,0.4011751 -0.255662,0.1715109 -0.489912,0.3118331 -0.520555,0.3118282 -0.03064,-5.8e-6 -0.296356,-0.1549063 -0.590474,-0.3442232 z"
   id="path200" /><path
   style="fill:#ffcc00;stroke-width:0.0713012"
   d="m 19.036798,33.959299 c -0.01837,-0.05016 -0.04179,-0.520865 -0.05204,-1.046004 l -0.01863,-0.954799 -0.288976,-0.08522 c -0.468307,-0.13811 -1.170053,-0.544459 -1.567389,-0.907602 -0.619636,-0.566312 -1.027995,-1.515438 -1.121052,-2.6056 l -0.03195,-0.374331 h 0.98452 0.98452 l 0.04563,0.267379 c 0.136776,0.8015 0.317791,1.133853 0.803455,1.47519 0.284364,0.199859 0.358531,0.216846 1.060143,0.242818 0.873479,0.03233 1.199852,-0.0429 1.560728,-0.359749 0.384539,-0.33763 0.55946,-0.727384 0.556997,-1.241084 -0.0035,-0.725248 -0.177921,-0.939548 -1.50391,-1.84752 -0.619413,-0.424143 -1.565581,-1.073142 -2.102595,-1.44222 -1.216224,-0.835883 -1.644272,-1.250394 -1.949989,-1.888319 -0.493598,-1.029965 -0.491183,-2.164281 0.0068,-3.176032 0.427633,-0.868887 1.134126,-1.479581 2.127306,-1.838846 l 0.435805,-0.157645 0.03565,-1.024116 0.03565,-1.024116 0.978475,-0.01982 0.978474,-0.01983 0.01974,1.043874 0.01974,1.043874 0.435805,0.157712 c 1.294446,0.468442 2.15531,1.417855 2.420641,2.669626 0.05504,0.259687 0.100637,0.624564 0.101318,0.810838 l 0.0012,0.338681 -0.730838,7.85e-4 c -0.401961,4.35e-4 -0.851159,0.02067 -0.998217,0.04498 l -0.26738,0.04419 -0.0016,-0.383661 c -0.0026,-0.632682 -0.377698,-1.239737 -0.950742,-1.538602 -0.29297,-0.152795 -1.239676,-0.206889 -1.72398,-0.09851 -0.931824,0.208533 -1.460717,1.032769 -1.24356,1.937982 0.06372,0.265627 0.164675,0.441778 0.364097,0.63531 0.15176,0.147278 1.118165,0.839878 2.147568,1.539111 2.46189,1.672268 2.83753,2.032499 3.191121,3.060231 0.306241,0.890104 0.237129,1.903215 -0.190435,2.791564 -0.369916,0.768577 -1.364535,1.57767 -2.266094,1.8434 l -0.288976,0.08517 -0.03565,1.026148 -0.03565,1.026148 -0.946181,0.01991 c -0.718069,0.01511 -0.954236,-0.0021 -0.979588,-0.0713 z"
   id="path204" /><path
   style="fill:#ffcc00;stroke-width:0.0713012"
   d="M 14.088069,8.4509866 C 12.97845,7.7006761 11.701297,6.3093986 11.920723,6.0899718 12.006496,6.0041992 13.621056,5.6857778 14.28137,5.624408 l 0.495779,-0.046078 0.266807,0.4550417 c 0.146744,0.2502729 0.53763,0.9746327 0.868636,1.6096886 l 0.601829,1.1546468 -0.23582,0.037816 c -0.129701,0.020799 -0.521858,0.046766 -0.871459,0.057705 l -0.635638,0.019888 z"
   id="path224" /><path
   style="fill:#ffcc00;stroke-width:0.0713012"
   d="m 23.797983,8.8803509 -0.37314,-0.038996 0.87219,-1.6660543 0.87219,-1.6660543 0.403797,0.042205 c 0.502333,0.052504 2.55974,0.4541552 2.616355,0.5107698 0.100252,0.1002526 -0.358959,0.7597085 -0.917411,1.3174581 -0.616565,0.6157908 -1.54597,1.3102111 -1.904916,1.4232902 -0.26606,0.083817 -1.109479,0.125412 -1.569065,0.077381 z"
   id="path226" /></svg>
