<?xml version="1.0" encoding="UTF-8" standalone="no"?>
<svg
   xmlns:dc="http://purl.org/dc/elements/1.1/"
   xmlns:cc="http://creativecommons.org/ns#"
   xmlns:rdf="http://www.w3.org/1999/02/22-rdf-syntax-ns#"
   xmlns:svg="http://www.w3.org/2000/svg"
   xmlns="http://www.w3.org/2000/svg"
   xmlns:sodipodi="http://sodipodi.sourceforge.net/DTD/sodipodi-0.dtd"
   xmlns:inkscape="http://www.inkscape.org/namespaces/inkscape"
   version="1.1"
   id="Layer_1"
   x="0px"
   y="0px"
   viewBox="0 0 106.31 122.88"
   style="enable-background:new 0 0 106.31 122.88"
   xml:space="preserve"
   sodipodi:docname="peach3.svg"
   inkscape:export-filename="/home/plmoknij/snap/inkscape/8746/bitmap.png"
   inkscape:export-xdpi="300.85999"
   inkscape:export-ydpi="300.85999"
   inkscape:version="1.0.2 (394de47547, 2021-03-26)"><metadata
     id="metadata82"><rdf:RDF><cc:Work
         rdf:about=""><dc:format>image/svg+xml</dc:format><dc:type
           rdf:resource="http://purl.org/dc/dcmitype/StillImage" /><dc:title></dc:title></cc:Work></rdf:RDF></metadata><defs
     id="defs80" /><sodipodi:namedview
     pagecolor="#ffffff"
     bordercolor="#666666"
     borderopacity="1"
     objecttolerance="10"
     gridtolerance="10"
     guidetolerance="10"
     inkscape:pageopacity="0"
     inkscape:pageshadow="2"
     inkscape:window-width="1515"
     inkscape:window-height="773"
     id="namedview78"
     showgrid="false"
     inkscape:zoom="4.5654297"
     inkscape:cx="53.155"
     inkscape:cy="61.44"
     inkscape:window-x="312"
     inkscape:window-y="109"
     inkscape:window-maximized="0"
     inkscape:current-layer="g75"
     inkscape:document-rotation="0" /><style
     type="text/css"
     id="style65">.st0{fill:#FF714C;} .st1{fill:#5E990B;}</style><g
     id="g75"><path
       class="st0"
       d="m 63.048354,39.337906 c 3.591662,2.353405 6.663718,5.470702 9.07943,9.158989 4.357397,6.658979 6.618139,15.192966 6.025605,24.375104 -0.0547,0.995374 -1.066559,1.766982 -2.251625,1.71297 -1.17595,-0.0463 -2.08754,-0.902782 -2.023729,-1.905873 0.546954,-8.503122 -1.513238,-16.350377 -5.487767,-22.43065 -3.783096,-5.77163 -9.289096,-9.922882 -15.925466,-11.450666 -7.693814,-1.072535 -14.375764,-0.208334 -19.890879,2.021613 -5.706549,2.307109 -10.200685,6.064841 -13.272741,10.648194 -3.117635,4.652797 -4.785844,10.123499 -4.813192,15.779388 -0.04558,8.341084 3.454924,17.091122 11.148738,24.174484 3.874255,3.56483 8.687446,6.55095 14.448691,8.966091 5.688317,2.39198 12.288224,4.2207 19.79972,5.517 6.818688,-1.76699 12.908105,-3.96607 18.204439,-6.620401 5.369261,-2.70063 9.936324,-5.85651 13.610029,-9.53708 6.891615,-6.882744 10.282733,-14.976914 10.537973,-22.68528 0.18232,-5.655888 -1.31269,-11.08801 -4.348282,-15.663647 C 94.89017,46.868802 90.359571,43.188231 84.461588,40.989147 78.645648,38.805496 71.47144,38.064752 63.048354,39.337906 Z"
       id="path67"
       style="stroke-width:0.838683" /><path
       class="st1"
       d="m 49.119269,28.658848 c -1.722904,-0.408952 -3.555198,-0.709879 -5.451304,-0.910498 -5.724781,-0.586422 -12.069443,-0.162037 -18.195323,1.442908 -1.130371,0.293211 -2.315437,-0.239199 -2.661841,-1.195993 -0.346404,-0.956794 0.282593,-1.967601 1.412964,-2.253096 6.718413,-1.759267 13.664724,-2.222232 19.945574,-1.581797 1.540586,0.154322 3.044709,0.385804 4.503251,0.671299 -2.379248,-2.330256 -5.232522,-3.842609 -8.359274,-4.652797 -5.150479,-1.327166 -11.094042,-0.810189 -16.873518,1.064819 -1.959917,0.632719 -3.874255,1.412043 -5.733897,2.291677 -1.239762,0.586422 -2.44306,1.219141 -3.628126,1.898156 1.312689,1.219141 2.670957,2.28396 4.047457,3.202174 5.30545,3.510817 11.048463,4.899712 16.399492,4.768539 5.323682,-0.131174 10.264496,-1.774699 13.98378,-4.31329 0.209666,-0.13889 0.410216,-0.285495 0.610765,-0.432101 z"
       id="path69"
       style="stroke-width:0.838683" /><path
       d="m 54.484859,41.800763 c -0.252665,-1.991263 -0.343623,-3.86709 -0.282983,-5.637101 -1.222895,-0.836908 -2.58728,-1.587239 -4.062836,-2.241373 -0.808525,0.817667 -1.687796,1.587238 -2.627706,2.29909 -3.749533,2.866649 -7.711304,4.559703 -12.36032,5.512047 -1.172361,0.24049 -2.344722,0.442503 -3.537296,0.625276 -0.717565,0.06734 -1.445237,0.115435 -2.183016,0.134674 C 22.578455,42.685769 15.251201,40.713745 8.5202339,35.6923 6.1552994,33.922289 3.8611107,31.786731 1.7084139,29.24715 0.89988926,28.294806 1.0615942,26.89996 2.0621434,26.130391 c 0.070746,-0.0481 0.1414919,-0.0962 0.2122378,-0.144294 2.1021639,-1.452565 4.2245412,-2.770453 6.3671314,-3.91519 2.2234424,-1.192833 4.5176304,-2.241372 6.8825654,-3.097519 7.226189,-2.635778 14.775788,-3.338011 21.456222,-1.394846 6.053829,1.760392 11.339558,5.656341 14.967812,12.188067 0.02021,0.02886 0.03032,0.05772 0.05053,0.0962 0.960122,0.423265 1.889926,0.885006 2.779303,1.375607 0.373943,-1.741152 0.909591,-3.366869 1.596836,-4.88677 2.304295,-5.098403 6.286279,-8.955873 11.400197,-11.957197 1.091509,-0.644515 2.52664,-0.317447 3.20378,0.721472 0.677139,1.03892 0.333516,2.404907 -0.757992,3.049422 -4.315501,2.539582 -7.660771,5.742917 -9.560804,9.946694 -0.919697,2.039362 -1.515984,4.319213 -1.718115,6.897273 0.01011,0.182774 0,0.355926 -0.04043,0.538699 -0.13138,2.068221 -0.02021,4.328832 0.36384,6.791457 l -4.7804,-0.538703 z m -9.227287,-9.581148 c -1.879821,-0.500221 -3.880919,-0.875386 -5.952763,-1.115878 -6.255959,-0.721471 -13.189058,-0.202011 -19.889706,1.770012 -1.233001,0.355926 -2.52664,-0.298208 -2.910689,-1.471803 -0.373943,-1.173594 0.313303,-2.414526 1.546304,-2.770452 7.347467,-2.164416 14.937492,-2.731974 21.799845,-1.943165 1.687795,0.192393 3.325057,0.471362 4.921894,0.827288 -2.597385,-2.866649 -5.720312,-4.723237 -9.136329,-5.714059 -5.629352,-1.635337 -12.127869,-0.990821 -18.444468,1.30827 -2.14259,0.77919 -4.234648,1.731532 -6.266066,2.81855 -1.3542784,0.721473 -2.6681306,1.500662 -3.9617699,2.327951 1.4351312,1.500661 2.9207953,2.80893 4.4266719,3.934426 5.801164,4.319213 12.077337,6.021887 17.918927,5.858353 5.821378,-0.163533 11.218279,-2.183655 15.281115,-5.300414 0.222345,-0.163534 0.444689,-0.346307 0.667034,-0.529079 z"
       id="path71"
       style="stroke-width:0.986006" /><path
       d="m 56.767504,39.129572 c 9.890744,-1.782415 18.359409,-0.995375 25.205445,1.566364 6.663718,2.492295 11.759502,6.635831 15.141499,11.736161 3.345532,5.046318 4.995512,11.018565 4.794962,17.206863 -0.28259,8.325653 -3.919837,17.060259 -11.331058,24.452269 -3.919834,3.91977 -8.751258,7.276261 -14.421343,10.123501 -5.624506,2.81636 -12.078559,5.13119 -19.298346,6.96762 -0.337288,0.0849 -0.683692,0.0926 -1.002749,0.0386 -7.930827,-1.32717 -14.931833,-3.25619 -20.984786,-5.79478 C 28.754364,102.85671 23.613,99.669969 19.465268,95.850509 11.151574,88.203849 7.3684782,78.743937 7.4231736,69.716121 c 0.036463,-6.16515 1.8687581,-12.137397 5.2598704,-17.206863 3.436691,-5.123479 8.459549,-9.328743 14.868022,-11.913631 1.358268,-0.547842 2.771231,-1.018523 4.248006,-1.412043 l 6.034721,-1.14198 -0.118506,0.03086 v 0 c 3.491387,-0.385804 7.228903,-0.35494 11.212548,0.154322 0.182318,0 0.373752,0.01543 0.55607,0.05401 l 0.273477,0.06173 c 0.893357,0.131174 1.795831,0.277779 2.70742,0.455249 l -0.01823,-0.146606 4.293586,0.31636 0.02735,0.162038 z m 2.497754,3.20989 c 3.527851,2.307108 6.536096,5.370393 8.906228,8.989235 4.275354,6.535522 6.490516,14.907471 5.916215,23.912139 -0.05469,0.979942 -1.048328,1.736118 -2.206046,1.682106 -1.157719,-0.0463 -2.051076,-0.88735 -1.987265,-1.867292 C 70.432228,66.714565 68.408499,59.013915 64.506897,53.049384 60.796729,47.385779 55.391004,43.311688 48.882256,41.814768 41.334296,40.765381 34.779969,41.61415 29.365128,43.797801 23.76797,46.058613 19.355878,49.7469 16.347633,54.245376 c -3.06294,4.560205 -4.703801,9.930598 -4.731149,15.478461 -0.04558,8.186763 3.391112,16.767042 10.939072,23.719232 3.801328,3.49539 8.52336,6.4275 14.175214,8.796341 5.578927,2.34569 12.060327,4.14353 19.425969,5.40897 6.691066,-1.73612 12.661976,-3.8889 17.858035,-6.49694 5.268986,-2.646621 9.74489,-5.748481 13.354784,-9.359611 C 94.13355,85.04026 97.460852,77.100412 97.706981,69.538651 97.889298,63.990788 96.42164,58.658975 93.440743,54.168216 90.496309,49.723752 86.056869,46.112626 80.268277,43.952123 74.570843,41.822484 67.533374,41.089456 59.265258,42.339462 Z"
       id="path73"
       style="stroke-width:0.838683" /><path
       style="fill:#ff9955;stroke-width:0.183703"
       d="M 56.156739,107.64838 C 39.048732,104.2251 27.475346,98.134069 20.170141,88.708779 18.031525,85.949509 15.797035,81.59055 14.800437,78.233767 c -1.086874,-3.660855 -1.510306,-8.580216 -1.04015,-12.084293 0.69331,-5.167248 2.757166,-10.085087 5.921774,-14.110644 2.206512,-2.806804 6.821585,-5.486227 11.952844,-6.939592 4.073016,-1.153631 9.782051,-1.579662 14.482706,-1.080758 4.28058,0.454319 8.528576,2.457075 12.367552,5.830792 5.184979,4.556596 8.648495,11.226147 9.912908,19.088885 0.191982,1.193839 0.348173,3.503346 0.379696,5.614315 0.0589,3.944188 0.130016,4.198644 1.286927,4.604266 1.463695,0.513183 3.013877,-0.388381 3.013877,-1.752826 0,-0.899849 0.110278,-0.992572 0.814088,-0.684505 1.260486,0.551732 2.756924,0.06262 3.187557,-1.04184 0.370941,-0.951368 0.125601,-7.629713 -0.385147,-10.484064 C 75.247704,57.104837 71.668119,50.050098 66.554752,45.20871 l -1.142746,-1.081962 2.585332,0.09984 c 3.180522,0.122825 5.517074,0.47206 8.358697,1.24934 8.71533,2.383936 15.333752,8.074082 18.374419,15.797289 3.502578,8.896448 1.928217,19.022269 -4.328,27.836412 -3.810594,5.3686 -10.450694,10.81005 -17.224046,14.114801 -3.056067,1.49107 -12.251049,4.58399 -14.142628,4.75716 -0.492489,0.0451 -1.668938,-0.0911 -2.879041,-0.33321 z"
       id="path84" /><path
       style="fill:#ff5555;stroke-width:0.219037"
       d="M 55.177962,107.33861 C 40.661464,104.18282 30.594017,99.399573 23.584947,92.328151 20.15317,88.865846 17.957965,85.648468 16.1223,81.390606 14.528275,77.693232 13.731831,73.704997 13.729553,69.408799 c -0.0043,-8.04916 4.039109,-16.786094 9.404214,-20.320641 5.681154,-3.742762 12.043576,-5.360583 20.05503,-5.099543 4.561605,0.148632 6.277897,0.543342 9.637647,2.216451 5.860206,2.918304 10.255944,7.714218 13.026121,14.211993 1.857731,4.357528 2.586267,7.928974 2.826369,13.855532 0.15284,3.7726 0.197011,4.080893 0.649536,4.533417 0.370434,0.370432 0.7423,0.485543 1.568562,0.485543 1.309178,0 1.962343,-0.536125 2.180905,-1.79011 0.100856,-0.578662 0.243686,-0.812613 0.461109,-0.755285 0.173246,0.04568 0.765127,0.130409 1.315289,0.188289 0.841385,0.08852 1.102368,0.0175 1.642781,-0.44697 0.575687,-0.494794 0.653868,-0.719321 0.752002,-2.159626 0.174025,-2.554182 -0.1359,-7.366586 -0.646187,-10.033771 -0.652559,-3.410814 -1.746852,-6.63288 -3.387013,-9.972795 -1.624055,-3.307122 -3.40672,-5.901734 -5.71321,-8.315401 l -1.639467,-1.715649 3.00973,0.133407 c 14.146265,0.627034 24.975533,9.396663 27.233885,22.054221 0.454179,2.545576 0.34592,7.324401 -0.228256,10.075661 -1.876025,8.989302 -7.913188,17.168224 -17.205739,23.309689 -4.490278,2.967639 -7.210169,4.196539 -14.560724,6.578809 -4.687642,1.51925 -5.633412,1.61416 -8.934175,0.89659 z"
       id="path106" /></g></svg>
