<?xml version="1.0" encoding="UTF-8" standalone="no"?>
<!-- Created with Inkscape (http://www.inkscape.org/) -->

<svg
   xmlns:dc="http://purl.org/dc/elements/1.1/"
   xmlns:cc="http://creativecommons.org/ns#"
   xmlns:rdf="http://www.w3.org/1999/02/22-rdf-syntax-ns#"
   xmlns:svg="http://www.w3.org/2000/svg"
   xmlns="http://www.w3.org/2000/svg"
   xmlns:sodipodi="http://sodipodi.sourceforge.net/DTD/sodipodi-0.dtd"
   xmlns:inkscape="http://www.inkscape.org/namespaces/inkscape"
   width="16.229584mm"
   height="20.788237mm"
   viewBox="0 0 16.229584 20.788237"
   version="1.1"
   id="svg980"
   inkscape:version="0.92.5 (2060ec1f9f, 2020-04-08)"
   sodipodi:docname="read_cockatoo.svg">
  <defs
     id="defs974">
    <filter
       inkscape:collect="always"
       style="color-interpolation-filters:sRGB"
       id="filter5712"
       x="-0.016484115"
       width="1.0329682"
       y="-0.015036597"
       height="1.0300732">
      <feGaussianBlur
         inkscape:collect="always"
         stdDeviation="0.7897216"
         id="feGaussianBlur5714" />
    </filter>
  </defs>
  <sodipodi:namedview
     id="base"
     pagecolor="#ffffff"
     bordercolor="#666666"
     borderopacity="1.0"
     inkscape:pageopacity="0.0"
     inkscape:pageshadow="2"
     inkscape:zoom="1.979899"
     inkscape:cx="-46.92538"
     inkscape:cy="103.67476"
     inkscape:document-units="mm"
     inkscape:current-layer="layer1"
     showgrid="false"
     fit-margin-top="0"
     fit-margin-left="0"
     fit-margin-right="0"
     fit-margin-bottom="0"
     inkscape:window-width="1920"
     inkscape:window-height="1043"
     inkscape:window-x="1920"
     inkscape:window-y="0"
     inkscape:window-maximized="1" />
  <metadata
     id="metadata977">
    <rdf:RDF>
      <cc:Work
         rdf:about="">
        <dc:format>image/svg+xml</dc:format>
        <dc:type
           rdf:resource="http://purl.org/dc/dcmitype/StillImage" />
        <dc:title></dc:title>
      </cc:Work>
    </rdf:RDF>
  </metadata>
  <g
     inkscape:label="Layer 1"
     inkscape:groupmode="layer"
     id="layer1"
     transform="translate(-88.81569,-70.403502)">
    <path
       style="fill:#f9f9f9;stroke:#000000;stroke-width:8.9766655;stroke-miterlimit:4;stroke-dasharray:none;stroke-opacity:1;filter:url(#filter5712)"
       d="m 135.69121,3553.5407 c 25.9316,15.1266 37.1046,-12.6903 49.3971,-23.8629 24.28781,-22.0754 42.26401,-79.9745 42.26401,-79.9745 l -98.68641,-17.8084 c 0,0 -40.969495,93.6492 7.0253,121.6458 z"
       id="rect2354-4-5-3-9"
       inkscape:connector-curvature="0"
       sodipodi:nodetypes="saccs"
       transform="matrix(0.03801785,0,0,0.02937818,85.509506,-14.604525)" />
    <path
       style="fill:#ffffff;stroke:#000000;stroke-width:0.33690825;stroke-miterlimit:4;stroke-dasharray:none;stroke-opacity:1"
       d="m 92.165839,78.064122 c 2.53027,-1.69167 8.204741,-1.69167 10.735001,0 1.36256,0.91098 1.08785,4.360711 1.47997,5.79082 0.70902,2.58582 0.98372,3.415281 -1.47997,5.06245 -2.53026,1.691671 -8.204731,1.691671 -10.735001,0 -2.58055,-1.7253 -3.78725,-3.77619 -2.88698,-6.44297 0.43458,-1.28733 1.64128,-3.57745 2.88698,-4.4103 z"
       id="rect1336-8-9-3-6"
       inkscape:connector-curvature="0"
       sodipodi:nodetypes="sssssss" />
    <path
       style="fill:#28170b;stroke:#000000;stroke-width:0.02021396;stroke-opacity:1"
       d="m 98.246909,82.263902 -1.10274,1.219731 1.64761,0.239999 0.596499,0.68501 c 0.667352,-0.77503 0.381611,-1.715099 -0.687679,-2.04768 -0.14575,-0.0453 -0.29809,-0.0767 -0.45369,-0.0971 z"
       id="path1264-5-6-8-9"
       inkscape:connector-curvature="0"
       inkscape:transform-center-x="2.2514067"
       inkscape:transform-center-y="1.2241756" />
    <path
       style="fill:#483737;stroke:#000000;stroke-width:0.0091864;stroke-opacity:1"
       d="m 98.420989,85.072643 -1.27682,-1.58901 a 1.1766849,0.60463001 71.290395 0 0 0.3932,1.55316 1.1766849,0.60463001 71.290395 0 0 0.88362,0.0358 z"
       id="path1269-6-2-6-3"
       inkscape:connector-curvature="0" />
    <path
       style="fill:#000000;stroke:#000000;stroke-width:0.0694939;stroke-miterlimit:4;stroke-dasharray:none;stroke-opacity:1"
       d="m 92.596939,82.239323 1.22375,0.413459 h 1.31647 l 0.90854,-0.413459 v 0.363839 l -0.90854,0.41346 h -1.33501 l -1.20521,-0.41346 z"
       id="rect2214-1-1-0-3"
       inkscape:connector-curvature="0"
       sodipodi:nodetypes="ccccccccc" />
    <path
       style="fill:#000000;stroke:#000000;stroke-width:0.05515907;stroke-miterlimit:4;stroke-dasharray:none;stroke-opacity:1"
       d="m 100.67279,81.850672 0.9994,0.31896 h 1.07511 l 0.74198,-0.31896 v 0.28068 l -0.74198,0.31896 h -1.09026 l -0.98425,-0.31896 z"
       id="rect2214-9-1-7-4-8"
       inkscape:connector-curvature="0"
       sodipodi:nodetypes="ccccccccc" />
    <rect
       style="fill:#000000;stroke:#000000;stroke-width:0.03685629;stroke-miterlimit:4;stroke-dasharray:none;stroke-opacity:1"
       id="rect2232-5-8-8-0"
       width="0.28739679"
       height="0.9327572"
       x="94.292595"
       y="89.879051" />
    <rect
       style="fill:#000000;stroke:#000000;stroke-width:0.07228943;stroke-miterlimit:4;stroke-dasharray:none;stroke-opacity:1"
       id="rect2234-9-5-8-5"
       width="0.37147006"
       height="1.8222265"
       x="169.93158"
       y="52.562096"
       transform="matrix(0.86284288,0.50547223,-0.99561637,0.09353094,0,0)"
       inkscape:transform-center-x="-0.86220859"
       inkscape:transform-center-y="0.12139709" />
    <rect
       style="fill:#000000;stroke:#000000;stroke-width:0.07228943;stroke-miterlimit:4;stroke-dasharray:none;stroke-opacity:1"
       id="rect2234-3-8-7-8-6"
       width="0.37147006"
       height="1.8222265"
       x="139.72649"
       y="215.80054"
       transform="matrix(-0.86284288,0.50547223,0.99561637,0.09353094,0,0)"
       inkscape:transform-center-x="0.86220849"
       inkscape:transform-center-y="0.12139712" />
    <rect
       style="fill:#000000;stroke:#000000;stroke-width:0.03685629;stroke-miterlimit:4;stroke-dasharray:none;stroke-opacity:1"
       id="rect2232-6-4-4-9-6"
       width="0.28739679"
       height="0.9327572"
       x="101.37295"
       y="89.405388" />
    <rect
       style="fill:#000000;stroke:#000000;stroke-width:0.07228943;stroke-miterlimit:4;stroke-dasharray:none;stroke-opacity:1"
       id="rect2234-0-8-1-7-4"
       width="0.37147006"
       height="1.8222265"
       x="170.25803"
       y="45.73349"
       transform="matrix(0.86284288,0.50547223,-0.99561637,0.09353094,0,0)"
       inkscape:transform-center-x="-0.86219224"
       inkscape:transform-center-y="0.12138871" />
    <rect
       style="fill:#000000;stroke:#000000;stroke-width:0.07228943;stroke-miterlimit:4;stroke-dasharray:none;stroke-opacity:1"
       id="rect2234-3-6-1-8-7-0"
       width="0.37147006"
       height="1.8222265"
       x="137.78487"
       y="221.2294"
       transform="matrix(-0.86284288,0.50547223,0.99561637,0.09353094,0,0)"
       inkscape:transform-center-x="0.86222205"
       inkscape:transform-center-y="0.12140018" />
    <ellipse
       style="fill:#ff0000;stroke:#000000;stroke-width:0.33690825;stroke-miterlimit:4;stroke-dasharray:none;stroke-opacity:1"
       id="path2276-0-5-6-0"
       cx="102.50294"
       cy="83.887215"
       rx="1.3412535"
       ry="0.75378174" />
    <ellipse
       style="fill:#ff0000;stroke:#000000;stroke-width:0.33690822;stroke-miterlimit:4;stroke-dasharray:none;stroke-opacity:1"
       id="path2276-8-3-9-4-4"
       cx="94.391136"
       cy="84.512093"
       rx="1.3412535"
       ry="0.75378174" />
    <path
       style="fill:#ffe680;stroke:#000000;stroke-width:0.17828062;stroke-miterlimit:4;stroke-dasharray:none;stroke-opacity:1"
       d="m 99.810598,71.712492 1.120112,0.34573 c 0,0 1.17906,2.42013 1.17906,3.67341 0,1.41174 -0.82535,3.97592 -0.82535,3.97592 h -1.473822 c 0,0 1.591732,-2.52096 1.591732,-3.9327 0,-1.25329 -1.591732,-4.06236 -1.591732,-4.06236 z"
       id="rect2303-0-7-3-6"
       inkscape:connector-curvature="0"
       sodipodi:nodetypes="ccsccsc" />
    <path
       style="fill:#ffe680;stroke:#000000;stroke-width:0.17828062;stroke-miterlimit:4;stroke-dasharray:none;stroke-opacity:1"
       d="m 98.336769,71.712492 1.12011,0.34573 c 0,0 1.179061,2.42013 1.179061,3.67341 0,1.41174 -0.825342,3.97592 -0.825342,3.97592 h -1.473829 c 0,0 1.59174,-2.52096 1.59174,-3.93271 0,-1.25328 -1.59174,-4.06235 -1.59174,-4.06235 z"
       id="rect2303-5-4-5-0-2"
       inkscape:connector-curvature="0"
       sodipodi:nodetypes="ccsccsc" />
    <path
       style="fill:#ffe680;stroke:#000000;stroke-width:0.17828062;stroke-miterlimit:4;stroke-dasharray:none;stroke-opacity:1"
       d="m 93.775259,74.377512 1.34413,0.21704 c 0,0 1.41488,1.51931 1.41488,2.30609 0,0.88626 -0.99041,2.49599 -0.99041,2.49599 h -1.7686 c 0,0 1.91009,-1.5826 1.91009,-2.46886 0,-0.78678 -1.91009,-2.55026 -1.91009,-2.55026 z"
       id="rect2303-5-0-4-3-3-6"
       inkscape:connector-curvature="0"
       sodipodi:nodetypes="ccsccsc" />
    <path
       style="fill:#ffe680;stroke:#000000;stroke-width:0.17828062;stroke-miterlimit:4;stroke-dasharray:none;stroke-opacity:1"
       d="m 95.343259,72.181802 0.90464,0.0739 c 0,0 1.53811,1.95518 1.89519,3.09948 0.40223,1.28897 0.53882,3.80832 0.53882,3.80832 l -1.06071,0.31812 c 0,0 0.4273,-2.64531 0.0251,-3.93429 -0.357071,-1.1443 -2.303001,-3.36554 -2.303001,-3.36554 z"
       id="rect2303-5-0-9-4-8-0-7"
       inkscape:connector-curvature="0"
       sodipodi:nodetypes="ccsccsc" />
    <ellipse
       style="fill:#f9f9f9;stroke:#000000;stroke-width:0.24706605;stroke-miterlimit:4;stroke-dasharray:none;stroke-opacity:1"
       id="path2658-8-9-5"
       cx="93.958458"
       cy="81.704979"
       rx="2.3573549"
       ry="1.5075631" />
    <ellipse
       style="fill:#2b2200;stroke:#000000;stroke-width:0.03412803;stroke-miterlimit:4;stroke-dasharray:none;stroke-opacity:1"
       id="path2660-3-2-6"
       cx="94.64019"
       cy="81.880867"
       rx="1.9928153"
       ry="1.4321851" />
    <ellipse
       style="fill:#ffffff;stroke:#000000;stroke-width:0.03002626;stroke-miterlimit:4;stroke-dasharray:none;stroke-opacity:1"
       id="path2662-1-5-9"
       cx="95.295097"
       cy="81.196175"
       rx="0.48605251"
       ry="0.32035714" />
    <ellipse
       style="fill:#f9f9f9;stroke:#000000;stroke-width:0.19091468;stroke-miterlimit:4;stroke-dasharray:none;stroke-opacity:1"
       id="path2658-3-8-4-8"
       cx="-101.80354"
       cy="81.410378"
       rx="2.0931687"
       ry="1.5075631"
       transform="scale(-1,1)" />
    <ellipse
       style="fill:#2b2200;stroke:#000000;stroke-width:0.03412803;stroke-miterlimit:4;stroke-dasharray:none;stroke-opacity:1"
       id="path2660-1-9-0-7"
       cx="-101.58921"
       cy="81.586266"
       rx="1.9928153"
       ry="1.4321851"
       transform="scale(-1,1)" />
    <ellipse
       style="fill:#ffffff;stroke:#000000;stroke-width:0.03002626;stroke-miterlimit:4;stroke-dasharray:none;stroke-opacity:1"
       id="path2662-7-6-5-2"
       cx="-100.73107"
       cy="80.901588"
       rx="0.48605251"
       ry="0.32035714"
       transform="scale(-1,1)" />
    <path
       style="fill:#ffe680;stroke:#000000;stroke-width:0.17828062;stroke-miterlimit:4;stroke-dasharray:none;stroke-opacity:1"
       d="m 93.997559,70.581482 0.90464,0.0739 c 0,0 1.5381,1.95518 1.89519,3.09948 0.40223,1.28898 0.53881,3.80833 0.53881,3.80833 l -1.0607,0.31811 c 0,0 0.42729,-2.64531 0.0251,-3.93429 -0.357081,-1.14429 -2.303001,-3.36553 -2.303001,-3.36553 z"
       id="rect2303-5-0-9-4-8-4-9-8"
       inkscape:connector-curvature="0"
       sodipodi:nodetypes="ccsccsc" />
    <path
       style="fill:#ffe680;stroke:#000000;stroke-width:0.17828062;stroke-miterlimit:4;stroke-dasharray:none;stroke-opacity:1"
       d="m 96.354209,70.492642 0.90464,0.0739 c 0,0 1.5381,1.95519 1.89519,3.09948 0.402229,1.28898 0.53882,3.80833 0.53882,3.80833 l -1.06071,0.31812 c 0,0 0.42729,-2.64531 0.0251,-3.93429 -0.357081,-1.1443 -2.303001,-3.36554 -2.303001,-3.36554 z"
       id="rect2303-5-0-9-4-8-4-3-4-2"
       inkscape:connector-curvature="0"
       sodipodi:nodetypes="ccsccsc" />
  </g>
</svg>
