<?xml version="1.0" standalone="no"?>
<!DOCTYPE svg PUBLIC "-//W3C//DTD SVG 20010904//EN"
 "http://www.w3.org/TR/2001/REC-SVG-20010904/DTD/svg10.dtd">
<svg version="1.0" xmlns="http://www.w3.org/2000/svg"
 width="1219.000000pt" height="1280.000000pt" viewBox="0 0 1219.000000 1280.000000"
 preserveAspectRatio="xMidYMid meet">
<metadata>
Created by potrace 1.15, written by Peter Selinger 2001-2017
</metadata>
<g transform="translate(0.000000,1280.000000) scale(0.100000,-0.100000)"
fill="#000000" stroke="none">
<path d="M9585 12316 c-213 -267 -387 -487 -387 -491 0 -4 54 -84 120 -178
749 -1069 1265 -2311 1507 -3632 141 -767 180 -1610 110 -2400 -141 -1606
-736 -3221 -1663 -4512 l-80 -112 390 -493 c214 -271 391 -494 392 -496 5 -4
256 335 373 503 727 1050 1270 2277 1567 3540 325 1383 362 2782 110 4175
-195 1083 -584 2185 -1109 3147 -251 458 -561 936 -861 1326 l-82 107 -387
-484z"/>
<path d="M4536 12083 c-1612 -2009 -2758 -3435 -2908 -3620 l-179 -223 -724 0
-725 0 0 -1830 0 -1830 723 0 723 0 1545 -1922 c849 -1058 1618 -2016 1709
-2130 91 -114 168 -207 173 -207 4 -1 7 2739 7 6089 0 3350 -2 6090 -4 6090
-3 0 -155 -188 -340 -417z"/>
<path d="M8005 10343 c-209 -262 -386 -486 -394 -498 -12 -19 -7 -32 55 -141
90 -158 278 -545 348 -716 263 -639 420 -1275 493 -1998 25 -250 25 -940 0
-1190 -74 -735 -237 -1385 -512 -2040 -98 -233 -214 -466 -391 -781 -4 -7 783
-992 796 -997 12 -5 193 282 332 528 85 149 249 476 331 660 304 681 525 1464
621 2209 50 378 60 557 61 1011 0 417 -6 533 -41 855 -134 1229 -565 2438
-1236 3468 -39 59 -73 107 -77 107 -3 0 -177 -215 -386 -477z"/>
<path d="M6323 8240 l-431 -539 19 -63 c35 -111 87 -329 113 -468 53 -292 61
-389 61 -775 0 -317 -3 -380 -23 -525 -29 -213 -72 -428 -123 -609 l-40 -144
48 -61 c103 -132 796 -1002 809 -1015 7 -8 16 -12 20 -9 3 4 43 93 89 200 218
506 358 1042 421 1608 22 197 30 722 15 932 -49 662 -208 1294 -478 1892 -27
61 -53 111 -59 112 -5 2 -203 -240 -441 -536z"/>
</g>
</svg>
